<svg width="16" height="17" viewBox="0 0 16 17" fill="none" xmlns="http://www.w3.org/2000/svg">
  <path d="M6.33333 11.0057C5.12222 11.0057 4.09733 10.5861 3.25867 9.74699C2.42 8.90788 2.00044 7.88299 2 6.67232C1.99956 5.46166 2.41911 4.43677 3.25867 3.59766C4.09822 2.75854 5.12311 2.33899 6.33333 2.33899C7.54356 2.33899 8.56867 2.75854 9.40867 3.59766C10.2487 4.43677 10.668 5.46166 10.6667 6.67232C10.6667 7.16121 10.5889 7.62232 10.4333 8.05566C10.2778 8.48899 10.0667 8.87232 9.8 9.20566L13.5333 12.939C13.6556 13.0612 13.7167 13.2168 13.7167 13.4057C13.7167 13.5945 13.6556 13.7501 13.5333 13.8723C13.4111 13.9945 13.2556 14.0557 13.0667 14.0557C12.8778 14.0557 12.7222 13.9945 12.6 13.8723L8.86667 10.139C8.53333 10.4057 8.15 10.6168 7.71667 10.7723C7.28333 10.9279 6.82222 11.0057 6.33333 11.0057ZM6.33333 9.67232C7.16667 9.67232 7.87511 9.38077 8.45867 8.79766C9.04222 8.21454 9.33378 7.5061 9.33333 6.67232C9.33289 5.83854 9.04133 5.13032 8.45867 4.54766C7.876 3.96499 7.16756 3.67321 6.33333 3.67232C5.49911 3.67143 4.79089 3.96321 4.20867 4.54766C3.62644 5.1321 3.33467 5.84032 3.33333 6.67232C3.332 7.50432 3.62378 8.21277 4.20867 8.79766C4.79356 9.38254 5.50178 9.6741 6.33333 9.67232Z" fill="#C2C2C2"/>
</svg>
