<svg width="19" height="20" viewBox="0 0 19 20" fill="none" xmlns="http://www.w3.org/2000/svg">
  <path d="M15.8332 8.41656C15.8332 11.9141 9.49984 17.9166 9.49984 17.9166C9.49984 17.9166 3.1665 11.9141 3.1665 8.41656C3.1665 6.73686 3.83376 5.12595 5.02149 3.93822C6.20922 2.75049 7.82013 2.08323 9.49984 2.08323C11.1795 2.08323 12.7905 2.75049 13.9782 3.93822C15.1659 5.12595 15.8332 6.73686 15.8332 8.41656Z" stroke="black" stroke-width="0.655172"/>
  <path d="M9.49992 9.20855C9.70988 9.20855 9.91125 9.12515 10.0597 8.97668C10.2082 8.82821 10.2916 8.62685 10.2916 8.41689C10.2916 8.20692 10.2082 8.00556 10.0597 7.85709C9.91125 7.70863 9.70988 7.62522 9.49992 7.62522C9.28996 7.62522 9.08859 7.70863 8.94013 7.85709C8.79166 8.00556 8.70825 8.20692 8.70825 8.41689C8.70825 8.62685 8.79166 8.82821 8.94013 8.97668C9.08859 9.12515 9.28996 9.20855 9.49992 9.20855Z" fill="black" stroke="black" stroke-width="0.655172" stroke-linecap="round" stroke-linejoin="round"/>
</svg>
