<svg width="20" height="20" viewBox="0 0 20 20" fill="none" xmlns="http://www.w3.org/2000/svg">
  <path d="M9.35068 10.6535H5.27129C5.04013 10.6535 4.84649 10.5752 4.69039 10.4185C4.53428 10.2619 4.45596 10.0682 4.45542 9.83761C4.45487 9.60699 4.5332 9.41336 4.69039 9.25671C4.84758 9.10006 5.04122 9.02174 5.27129 9.02174H9.35068V4.94235C9.35068 4.71118 9.42901 4.51755 9.58566 4.36144C9.74231 4.20534 9.93594 4.12701 10.1666 4.12647C10.3972 4.12592 10.5911 4.20425 10.7483 4.36144C10.9055 4.51863 10.9835 4.71227 10.9824 4.94235V9.02174H15.0618C15.293 9.02174 15.4869 9.10006 15.6436 9.25671C15.8002 9.41336 15.8783 9.60699 15.8777 9.83761C15.8772 10.0682 15.7988 10.2621 15.6427 10.4193C15.4866 10.5765 15.293 10.6546 15.0618 10.6535H10.9824V14.7329C10.9824 14.964 10.9041 15.158 10.7475 15.3146C10.5908 15.4713 10.3972 15.5493 10.1666 15.5488C9.93594 15.5482 9.74231 15.4699 9.58566 15.3138C9.42901 15.1577 9.35068 14.964 9.35068 14.7329V10.6535Z" fill="#9D9D9D"/>
</svg>
