<svg width="28" height="28" viewBox="0 0 28 28" fill="none" xmlns="http://www.w3.org/2000/svg">
  <path d="M14 1.34375C7.01016 1.34375 1.34375 7.01016 1.34375 14C1.34375 20.9898 7.01016 26.6562 14 26.6562C20.9898 26.6562 26.6562 20.9898 26.6562 14C26.6562 7.01016 20.9898 1.34375 14 1.34375ZM21.7561 21.7561C19.8329 23.6735 17.2647 24.8063 14.5519 24.9336C11.8391 25.061 9.17611 24.1738 7.08174 22.4449C4.98737 20.7161 3.61168 18.2694 3.22272 15.5816C2.83376 12.8939 3.4594 10.1576 4.97774 7.9059C6.49607 5.65422 8.79832 4.04849 11.4359 3.40156C14.0735 2.75464 16.8575 3.11287 19.2453 4.40646C21.6332 5.70004 23.454 7.83631 24.3528 10.399C25.2516 12.9617 25.1642 15.7673 24.1074 18.269C23.5567 19.5726 22.7582 20.7569 21.7561 21.7561Z" fill="white"/>
  <path d="M8.5156 11.0469H10.625V13.1562H8.5156V11.0469ZM17.375 11.0469H19.4844V13.1562H17.375V11.0469ZM18.3394 16.7C18.0131 17.5236 17.4461 18.2298 16.7125 18.7264C15.9789 19.2231 15.1127 19.4872 14.2267 19.4844H13.7732C12.8873 19.4873 12.021 19.2232 11.2874 18.7265C10.5537 18.2298 9.98676 17.5236 9.66036 16.7L9.59291 16.5312H7.77563L8.09373 17.3265C8.54777 18.4616 9.33151 19.4347 10.3438 20.1201C11.3562 20.8055 12.5507 21.1718 13.7732 21.1719H14.2267C15.4493 21.1718 16.6438 20.8055 17.6561 20.1201C18.6684 19.4347 19.4522 18.4616 19.9062 17.3265L20.2243 16.5312H18.4069L18.3394 16.7Z" fill="white"/>
</svg>
