<svg width="29" height="27" viewBox="0 0 29 27" fill="none" xmlns="http://www.w3.org/2000/svg">
  <mask id="mask0_2451_1783" style="mask-type:luminance" maskUnits="userSpaceOnUse" x="0" y="0" width="29" height="27">
    <path d="M28.739 15.5386C28.739 14.7368 28.302 14.0381 27.6547 13.6667C27.2978 8.99697 24.3444 5.04715 20.2431 3.2617L20.3838 2.87369C20.4836 2.59784 20.2477 2.31593 19.9588 2.36595L17.9551 2.72061C17.9142 1.21101 16.6833 0 15.168 0C13.6527 0 12.4882 1.14736 12.3869 2.59936C7.79116 3.73307 4.19803 7.44948 3.23926 12.1207C1.38977 12.5057 0 14.1487 0 16.116C0 18.3698 1.82379 20.1977 4.07252 20.1977C4.15267 20.1977 4.2313 20.1901 4.30994 20.1856C6.34696 24.2233 10.5238 27 15.3389 27C20.1539 27 24.0737 24.39 26.1727 20.5524L26.5129 20.7494C26.767 20.8964 27.0846 20.713 27.0846 20.419V17.9318C27.0846 17.8227 27.0407 17.7272 26.9712 17.6605C27.9753 17.4786 28.739 16.598 28.739 15.5386ZM15.3373 25.3691C11.2769 25.3691 7.73672 23.0957 5.91747 19.7521C7.23768 19.0776 8.14352 17.7044 8.14352 16.1175C8.14352 14.1517 6.75678 12.5103 4.9088 12.1238C5.83733 8.23307 8.87999 5.15628 12.7484 4.19232C13.2308 5.03048 14.1321 5.59582 15.1665 5.59582C16.3052 5.59582 17.2821 4.91226 17.7161 3.93314L18.8836 5.32604C19.0726 5.55187 19.4341 5.48821 19.5339 5.21085L19.6821 4.80162C23.0998 6.32637 25.5799 9.58959 25.9973 13.4651C25.0944 13.7213 24.4321 14.5519 24.4321 15.5401C24.4321 16.6571 25.2789 17.5756 26.3647 17.6863L24.3625 18.8457C24.1085 18.9928 24.1085 19.3611 24.3625 19.5081L24.7633 19.74C22.9455 23.0896 19.4038 25.3707 15.3373 25.3707V25.3691Z" fill="white"/>
  </mask>
  <g mask="url(#mask0_2451_1783)">
    <rect width="41.3491" height="25.8465" transform="matrix(-0.707916 0.706296 -0.704704 -0.709501 41.1377 7.51892)" fill="black"/>
  </g>
</svg>
