<svg width="32" height="36" viewBox="0 0 32 36" fill="none" xmlns="http://www.w3.org/2000/svg">
<g id="Group 1262">
<path id="Vector" opacity="0.5" d="M15.9707 5.29062C13.145 5.29062 10.7768 6.24597 8.86607 8.15665C6.95538 10.0673 6.00096 12.4356 6.00279 15.2613C5.98573 16.5402 6.23101 17.8091 6.72348 18.9895C7.21594 20.1699 7.94515 21.2368 8.86607 22.1244C10.7768 24.0351 13.145 24.9904 15.9707 24.9904C18.5426 24.9725 21.004 23.9428 22.8226 22.1242C24.6413 20.3056 25.6709 17.8442 25.6889 15.2723C25.6889 12.4447 24.7335 10.0765 22.8229 8.16763C21.938 7.2452 20.8735 6.51397 19.6949 6.01913C18.5164 5.52429 17.2489 5.27635 15.9707 5.29062Z" fill="white"/>
<path id="Vector_2" d="M26.9677 4.47769C23.9411 1.61738 19.9392 0.0164425 15.7749 0.000125954C11.6106 -0.0161906 7.59623 1.55333 4.54732 4.38984C3.12762 5.80502 2.00118 7.48648 1.23259 9.33784C0.463996 11.1892 0.0683594 13.1741 0.0683594 15.1786C0.0683594 17.1832 0.463996 19.168 1.23259 21.0194C2.00118 22.8708 3.12762 24.5522 4.54732 25.9674L14.4027 35.4275C14.7785 35.7882 15.2792 35.9896 15.8001 35.9896C16.3209 35.9896 16.8216 35.7882 17.1974 35.4275L27.0555 25.9592C28.5064 24.5685 29.6593 22.8972 30.4442 21.0471C31.2291 19.197 31.6296 17.2066 31.6214 15.1968C31.6132 13.1871 31.1964 11.2 30.3964 9.35639C29.5964 7.51274 28.4299 5.85101 26.9677 4.4722V4.47769ZM22.8224 22.1131C21.9353 23.0349 20.8685 23.7649 19.6881 24.2579C18.5076 24.7508 17.2385 24.9963 15.9593 24.9791C13.1335 24.9791 10.7653 24.0238 8.8546 22.1131C7.93368 21.2255 7.20448 20.1586 6.71201 18.9782C6.21954 17.7977 5.97426 16.5289 5.99132 15.25C5.99132 12.4224 6.94575 10.0542 8.8546 8.14533C10.7635 6.23647 13.1317 5.28113 15.9593 5.2793C17.2385 5.26211 18.5076 5.50759 19.6881 6.00057C20.8685 6.49354 21.9353 7.22352 22.8224 8.14533C24.7331 10.056 25.6884 12.4242 25.6884 15.25C25.7056 16.5292 25.4601 17.7983 24.9671 18.9788C24.4742 20.1593 23.7442 21.226 22.8224 22.1131Z" fill="#ea4335"/>
</g>
</svg>
