<svg width="269" height="185" viewBox="0 0 269 185" fill="none" xmlns="http://www.w3.org/2000/svg">
<path fill-rule="evenodd" clip-rule="evenodd" d="M257.364 185C264.87 166.301 269 145.883 269 124.5C269 74.5193 246.435 29.8088 210.938 0H20C8.95431 0 0 8.9543 0 20V165C0 176.046 8.95431 185 20 185H257.364Z" fill="white" fill-opacity="0.06"/>
<path fill-rule="evenodd" clip-rule="evenodd" d="M239.635 185C245.699 167.964 249 149.617 249 130.5C249 77.0432 223.188 29.6152 183.347 0H20C8.95431 0 0 8.9543 0 20V165C0 176.046 8.95431 185 20 185H239.635Z" fill="white" fill-opacity="0.06"/>
</svg>
