<svg width="304" height="246" viewBox="0 0 304 246" fill="none" xmlns="http://www.w3.org/2000/svg">
<path fill-rule="evenodd" clip-rule="evenodd" d="M0 25.1084V17.9167C1.50004e-06 17.9167 3.00009e-06 17.9167 4.50015e-06 17.9167V25.1084C3.00009e-06 25.1084 1.50004e-06 25.1084 0 25.1084ZM4.50015e-06 226.014V25.1084C2.87004 60.6972 49.5228 78.8069 129.93 96.1232C276.414 127.669 313.251 191.037 301.466 246H20C8.95883 246 0.00733065 237.053 4.50015e-06 226.014ZM4.09645 0.167969C1.77398 6.50956 0.418726 12.4088 4.50015e-06 17.9167V12.2837C0.00302763 7.72826 1.52906 3.52914 4.09645 0.167969Z" fill="white" fill-opacity="0.08"/>
</svg>
