<svg width="82" height="72" viewBox="0 0 82 72" fill="none" xmlns="http://www.w3.org/2000/svg">
  <g clip-path="url(#clip0_2451_682)">
    <path d="M58.433 53.9118C68.1323 44.1955 68.1323 28.4424 58.433 18.7262C48.7337 9.00993 33.008 9.00993 23.3087 18.7262C13.6094 28.4424 13.6094 44.1955 23.3087 53.9118C33.008 63.628 48.7337 63.628 58.433 53.9118Z" fill="url(#paint0_linear_2451_682)"/>
    <g opacity="0.3" filter="url(#filter0_d_2451_682)">
      <path d="M16.4124 36.8096C16.4124 23.0687 27.5321 11.9296 41.249 11.9296C49.1653 11.9296 56.2162 15.6402 60.7637 21.4187C56.2338 15.36 49.0101 11.4383 40.8713 11.4383C27.1543 11.4383 16.0347 22.5774 16.0347 36.3182C16.0347 42.1291 18.0229 47.4735 21.3551 51.7076C18.2498 47.5541 16.4109 42.3974 16.4109 36.8081L16.4124 36.8096Z" fill="white"/>
    </g>
    <path d="M26.0712 16.8428C26.0375 16.9924 26.0976 17.1039 26.0961 17.2461C26.0888 17.6832 26.2586 18.0631 25.8999 18.6526C25.8955 18.6585 25.9189 18.6702 25.9219 18.6732C26.0946 18.66 26.1591 18.3314 26.3289 18.3886C26.4416 18.4268 26.4445 18.5734 26.3992 18.7201C26.3069 19.0149 26.0551 19.097 25.8004 19.1968C25.9219 19.2525 26.0258 19.2862 26.1093 19.342C26.326 19.4842 26.2937 19.647 25.9863 19.8905C25.856 19.9946 25.7916 20.0811 25.8516 20.1823C25.9424 20.3349 25.8047 20.3803 25.6671 20.4361C25.531 20.4918 25.3787 20.5211 25.2557 20.7147C25.3304 20.6913 25.3714 20.6795 25.4124 20.6649C25.5031 20.6341 25.6232 20.5417 25.6583 20.6414C25.692 20.7367 25.5807 20.8145 25.4973 20.8863C25.348 21.0154 25.2484 21.1782 25.0874 21.3102C24.9483 21.4246 24.957 21.6094 25.1093 21.5976C25.3392 21.58 25.3055 21.6548 25.184 21.8235C25.0859 21.9584 25.0581 22.0963 25.0859 22.2151C25.143 22.463 25.1986 22.7181 25.2952 22.9484C25.3685 23.1215 25.4929 23.2637 25.7081 23.3151C25.8853 23.3561 26.1122 23.3532 26.0419 23.6333C26.0302 23.6803 26.0668 23.6935 26.1166 23.6935C26.2967 23.6949 26.8501 23.3415 26.8852 23.1567C26.9555 22.8076 27.1854 22.5011 27.4299 22.243C27.8515 21.8 28.3083 21.363 28.9086 21.3219C29.2966 21.2955 29.6245 21.0623 29.8324 20.6898C29.8998 20.5681 29.97 20.4771 30.1121 20.4639C30.2263 20.4537 30.3405 20.3847 30.4429 20.3011C30.6333 20.1471 30.8353 20.0841 31.0125 20.1163C31.746 20.2454 32.5205 19.8993 33.3023 19.6456C33.0885 19.5664 32.9011 19.5018 32.683 19.5077C32.5424 19.5121 32.3433 19.625 32.2979 19.4476C32.2584 19.2906 32.4751 19.2745 32.5483 19.1572C32.6142 19.053 32.6186 18.8976 32.7928 18.8521C33.0212 18.7934 33.1793 18.7964 33.1998 19.0662C33.2071 19.1616 33.2408 19.2848 33.3755 19.2144C33.5116 19.1425 33.5102 19.012 33.4794 18.9049C33.4633 18.8521 33.4282 18.8096 33.396 18.7685C33.2437 18.5778 33.0358 18.5074 32.7664 18.5382C32.6127 18.5558 32.4839 18.5324 32.6537 18.2933C32.743 18.1672 32.6874 18.0997 32.6259 18.0323C32.582 17.9839 32.5117 17.9311 32.5659 17.8357C32.6215 17.7389 32.7108 17.7565 32.7825 17.758C32.9568 17.7609 33.1222 17.8431 33.2745 17.5175C33.3316 17.3957 33.4941 17.4324 33.5775 17.494C33.6917 17.5791 33.7927 17.6847 33.9026 17.78C33.9831 17.8504 34.0519 17.9531 34.2232 17.8812C34.1983 17.8343 34.1822 17.7917 34.1573 17.758C34.1061 17.6876 34.0182 17.6216 34.0958 17.5028C34.1617 17.4016 34.273 17.4016 34.3681 17.3928C34.4545 17.384 34.5394 17.4383 34.6463 17.3297C34.5731 17.1405 34.5087 16.9557 34.3022 16.9191C34.2481 16.9088 34.1851 16.8736 34.2115 16.7783C34.2334 16.7005 34.3008 16.6859 34.3535 16.6492C34.3989 16.617 34.4662 16.6463 34.4955 16.5539C34.4633 16.4879 34.393 16.5011 34.3374 16.4879C34.2642 16.4718 34.1632 16.4615 34.1968 16.3427C34.2276 16.2327 34.3388 16.199 34.4179 16.1784C34.5731 16.1403 34.7327 16.0758 34.8659 16.152C34.9142 16.1799 35.0182 16.2151 35.0577 16.1066C35.106 15.9716 34.9801 16.0406 34.923 16.0244C34.7942 15.9907 34.6844 15.8924 34.7283 15.7267C34.7693 15.5698 34.6609 15.36 34.8542 15.2647C35.147 15.1195 35.2993 14.8247 35.5057 14.5813C35.4838 14.5725 35.472 14.5622 35.4559 14.5607C35.3564 14.549 35.1456 14.6971 35.1939 14.4713C35.2319 14.3011 35.4135 14.2542 35.5467 14.2307C35.6067 14.2205 35.6668 14.2263 35.7268 14.1999C35.8586 14.1442 35.9962 14.2439 36.106 14.109C36.2685 13.9051 36.4281 13.8831 36.5979 13.8157C36.7209 13.7673 36.8497 13.7101 36.9727 13.584C36.6404 13.4124 36.5276 13.408 36.1704 13.5693C35.9845 13.6529 35.7971 13.6969 35.6507 13.6382C35.4881 13.5737 35.3227 13.6338 35.1382 13.7042C35.0079 13.7541 34.7956 13.9007 34.9303 13.5341C34.9655 13.4388 34.8703 13.4593 34.8191 13.4564C34.3301 13.4212 33.8235 13.5033 33.2598 13.7629C33.0651 13.8538 32.8675 13.9433 32.6727 14.0078C32.5746 14.0415 32.4194 14.0914 32.4399 13.9462C32.459 13.8142 32.6054 13.7731 32.6962 13.7262C33.3989 13.3684 34.0651 13.0853 34.6975 13.0648C34.9128 13.0574 35.1485 12.99 35.4398 12.7612C35.1587 12.8301 34.9538 12.8125 34.7444 12.8184C34.5819 12.8228 34.4838 12.7788 34.721 12.4854C34.4311 12.4986 34.1807 12.4825 33.9055 12.5294C33.5834 12.5852 33.2437 12.6834 32.9377 12.6849C30.3346 13.5649 27.9262 14.8673 25.7886 16.5084C26.0053 16.4908 26.1371 16.5422 26.0683 16.8428H26.0712Z" fill="#8C8C8C"/>
    <path d="M52.6001 49.892C52.0891 50.1559 51.8812 50.4962 51.8929 50.9494C51.8988 51.1591 51.9529 51.3894 51.8051 51.5888C51.483 52.023 51.5694 52.3999 51.688 52.7944C51.8226 53.2476 52.1345 53.142 52.5664 52.8824C52.6777 52.815 52.7157 52.6932 52.7641 52.5847C53.1857 51.6519 53.3804 50.6986 53.7699 49.7644C53.9046 49.4402 53.8592 49.0897 53.5839 48.7318C53.4463 49.295 53.0818 49.6441 52.6015 49.892H52.6001Z" fill="#8C8C8C"/>
    <path d="M38.4028 27.4495C38.4496 27.3395 38.4643 27.2119 38.3208 27.1811C38.0851 27.1298 38.0382 26.9596 38.0002 26.7807C37.946 26.5226 37.8303 26.2894 37.6473 26.1119C37.3765 25.8523 37.1246 25.6191 37.5595 25.2745C37.498 25.1894 37.4379 25.2041 37.3852 25.2011C37.0866 25.1865 37.0456 25.1014 37.2213 24.8536C37.3018 24.7406 37.3926 24.6365 37.5038 24.4957C37.4218 24.5074 37.3984 24.5074 37.3794 24.5148C37.3472 24.528 37.312 24.5382 37.2886 24.5617C36.9621 24.8712 36.5258 25.0985 36.6678 25.669C36.7132 25.8509 36.6649 26.0533 36.8596 26.1677C37.3033 26.4287 37.3106 26.6253 36.8904 26.9802C36.7908 27.0638 36.6942 27.1972 36.6781 27.3102C36.662 27.4334 36.8304 27.3908 36.9241 27.4099C36.9943 27.4231 37.0602 27.4466 37.0719 27.5184C37.0851 27.5932 37.0134 27.6314 36.9607 27.6768C36.8201 27.7971 36.5888 27.7619 36.4307 28.001C36.9123 27.8939 37.3369 27.8558 37.7688 27.8616C38.0558 27.8646 38.2871 27.7194 38.3998 27.451L38.4028 27.4495Z" fill="#8C8C8C"/>
    <path d="M51.9471 18.5558C52.0818 18.8536 52.2838 18.8213 52.48 18.8492C52.5576 18.8609 52.6571 18.88 52.6747 18.7861C52.6908 18.6981 52.5854 18.6702 52.5342 18.6189C52.3892 18.4766 52.193 18.3432 52.256 18.1232C52.4434 17.4661 52.6586 16.8443 53.2384 16.617C53.6073 16.4732 53.9602 16.3192 54.291 16.1374C54.4067 16.0728 54.515 15.998 54.5853 15.8719C54.4726 15.7678 54.417 15.8088 54.3686 15.8426C54.0026 16.1007 53.5341 16.177 53.0759 16.287C52.7347 16.3691 52.4814 16.6551 52.092 16.6698C52.0525 16.6712 52.0217 16.7108 52.0466 16.7519C52.2238 17.0467 52.0085 17.1464 51.9353 17.3107C51.8563 17.4925 51.805 17.6348 52.1286 17.6993C51.6557 17.6715 51.6425 18.0631 51.5503 18.4297C51.7113 18.4693 51.8724 18.3916 51.9456 18.5529L51.9471 18.5558Z" fill="#8C8C8C"/>
    <path d="M41.9884 15.3278C42.0279 15.2486 42.0616 15.2237 42.104 15.2779C42.2622 15.4818 42.41 15.3762 42.5681 15.2413C42.6472 15.1738 42.7453 15.1415 42.8375 15.1049C42.902 15.0799 42.9649 15.1078 42.9898 15.1855C43.0162 15.2691 42.9693 15.3263 42.9151 15.3747C42.8273 15.4539 42.6955 15.4612 42.6414 15.602C42.7116 15.6959 42.8595 15.5874 42.8727 15.7311C42.8946 15.9526 42.6838 15.957 42.5974 16.0802C42.6809 16.1506 42.7731 16.2034 42.8361 16.287C43.0015 16.5026 43.1172 16.4395 43.1889 16.1902C43.2855 15.8514 43.4554 15.5712 43.6369 15.3014C43.6442 15.2823 43.6574 15.275 43.6721 15.2706C43.6603 15.2809 43.6486 15.2911 43.6369 15.3014C43.8331 15.275 43.9707 15.5096 44.1684 15.4847C44.2108 15.6094 43.9576 15.756 44.1742 15.8499C44.3045 15.9056 44.5183 15.8558 44.5608 15.7487C44.6281 15.5756 44.4217 15.561 44.3324 15.4788C44.1523 15.3747 43.9737 15.2706 43.7965 15.1665C43.7863 14.9567 43.6486 14.9538 43.5344 14.9127C43.552 14.6751 43.6779 14.6355 43.8287 14.6605C43.9561 14.6825 44.0879 14.703 44.2079 14.7573C44.6457 14.9523 44.9151 14.6223 45.2064 14.3085C45.1244 14.2762 45.0732 14.2381 45.0263 14.2425C44.7262 14.2645 44.3529 13.8758 44.164 14.4947C44.1479 14.5475 44.0937 14.5871 44.0498 14.4918C43.9092 14.1853 43.6852 14.2645 43.4305 14.2645C43.5754 14.4698 43.5344 14.6326 43.4305 14.7895C43.3236 14.8819 43.2548 14.8423 43.1713 14.725C43.0205 14.5153 42.8507 14.4507 42.675 14.7309C42.5886 14.8673 42.4671 14.9333 42.3515 14.8423C42.1816 14.7089 42.4437 14.6267 42.4042 14.4889C42.208 14.4903 42.0133 14.4991 41.8332 14.7074C41.9196 14.7719 42.0352 14.6091 42.0689 14.7793C42.0894 14.8834 42.0455 14.9714 41.9854 15.0447C41.9532 15.0829 41.9122 15.1093 41.8727 15.1357C41.8156 15.1723 41.7043 15.1738 41.7878 15.2999C41.8376 15.3747 41.9108 15.4891 41.9913 15.3278H41.9884Z" fill="#8C8C8C"/>
    <path d="M32.7298 22.1256C32.7899 22.3852 33.0168 22.4101 33.2467 22.4233C33.7005 22.4497 34.1339 22.2327 34.5629 22.0552C34.6859 22.0039 34.8601 21.9702 34.8615 21.7795C34.8615 21.5874 34.5936 21.2779 34.4575 21.294C34.3125 21.3102 34.1661 21.3058 34.0241 21.3483C33.8162 21.4128 33.5556 21.2867 33.4253 21.451C33.1442 21.803 32.8089 21.825 32.4692 21.9203C32.5176 22.0376 32.6991 21.9951 32.7298 22.1256Z" fill="#8C8C8C"/>
    <path d="M22.2485 28.4952C21.9937 28.4556 22.1182 28.2928 22.146 28.152C22.1943 27.91 22.0289 27.8176 21.8063 27.7795C21.698 27.7604 21.5809 27.7604 21.4579 27.7516C21.5677 27.6226 21.7346 27.5712 21.799 27.3864C21.4037 27.4143 21.1226 27.6504 20.821 27.8279C20.6687 27.9174 20.5018 28.0186 20.5706 28.1858C20.6336 28.3368 20.7668 28.4248 20.9894 28.3852C21.1314 28.3603 21.2749 28.3398 21.4169 28.3031C21.6204 28.2503 21.6965 28.2708 21.5662 28.4659C21.5062 28.5568 21.4974 28.6698 21.5706 28.724C21.6672 28.7959 21.7346 28.6639 21.8063 28.6184C21.9366 28.5348 22.001 28.5803 22.0728 28.6463C22.1182 28.6874 22.1811 28.6668 22.2324 28.6257C22.288 28.5818 22.3026 28.5026 22.2485 28.4938V28.4952Z" fill="#8C8C8C"/>
    <path d="M35.2712 27.4378C35.6841 27.4686 36.3151 26.9303 36.3517 26.5299C36.3722 26.3202 36.2536 26.1677 36.0282 26.1251C35.8261 26.087 35.7309 26.2043 35.6943 26.373C35.668 26.4918 35.5758 26.527 35.4777 26.571C35.4176 26.5974 35.3034 26.6341 35.3386 26.6927C35.4659 26.8995 35.2463 27.0257 35.1951 27.1899C35.1673 27.2779 35.0765 27.4231 35.2698 27.4378H35.2712Z" fill="#8C8C8C"/>
    <path d="M50.3233 14.3055C50.3906 14.3261 50.4565 14.3422 50.4609 14.2542C50.4653 14.1471 50.3906 14.1383 50.3306 14.1281C50.2896 14.1222 50.2413 14.1339 50.2193 14.0606C50.2003 13.9975 50.2325 13.9623 50.2662 13.9433C50.3701 13.8846 50.4667 13.7555 50.6058 14.0107C50.6659 14.1207 50.7478 14.1369 50.8064 14.0738C50.8781 13.9961 50.9543 13.9902 51.0729 14.0386C51.2046 14.0929 51.2749 13.9917 51.294 13.8611C51.2573 13.7673 51.1841 13.691 51.1622 13.7247C51.0187 13.9403 50.8137 13.6763 50.6468 13.6235C50.4345 13.5561 50.253 13.6837 50.0187 13.5091C49.9397 13.449 49.7596 13.581 49.8518 13.779C49.9543 13.9975 50.0905 14.2366 50.3203 14.307L50.3233 14.3055Z" fill="#8C8C8C"/>
    <path d="M63.9364 40.8501C63.7095 40.8648 63.7358 41.0965 63.7124 41.2725C63.7607 41.3972 63.7153 41.6157 64.014 41.582C64.1824 41.5629 64.3742 41.4559 64.3229 41.2901C64.2644 41.1053 64.2497 40.8281 63.9379 40.8487L63.9364 40.8501Z" fill="#8C8C8C"/>
    <path d="M42.3662 33.0345C42.5052 33.074 42.5418 32.9787 42.5404 32.8849C42.536 32.6751 42.3969 32.6018 42.0719 32.6429C42.0485 32.6487 41.8201 32.6018 41.8435 32.7455C41.8786 32.9641 42.1627 32.9773 42.3676 33.0345H42.3662Z" fill="#8C8C8C"/>
    <path d="M19.6571 27.4818C19.5693 27.4964 19.4097 27.4612 19.4097 27.5771C19.4097 27.7472 19.5678 27.8396 19.7596 27.8704C19.8591 27.8866 20.0099 27.8704 20.0187 27.7604C20.0348 27.5654 19.8504 27.5155 19.6571 27.4818Z" fill="#8C8C8C"/>
    <path d="M53.3498 18.9034C53.2751 18.8976 53.2224 18.9782 53.2795 19.0516C53.3995 19.2085 53.546 19.342 53.7348 19.3229C53.8168 19.3156 53.8373 19.2584 53.8036 19.1469C53.6806 19.0032 53.5225 18.9152 53.3512 18.902L53.3498 18.9034Z" fill="#8C8C8C"/>
    <path d="M51.136 19.4314C51.0072 19.4696 50.9091 19.562 50.9281 19.738C50.9384 19.8348 50.9852 19.9037 51.0775 19.889C51.221 19.8436 51.3381 19.782 51.3176 19.603C51.3059 19.4974 51.2385 19.4006 51.1346 19.4314H51.136Z" fill="#8C8C8C"/>
    <path d="M38.8552 32.1251C39.0236 32.0753 39.1846 32.0034 39.3384 31.9433C39.3267 31.8347 39.2608 31.7849 39.1905 31.801C39.0324 31.8377 38.845 31.8523 38.7747 32.021C38.7542 32.0709 38.7732 32.1486 38.8552 32.1237V32.1251Z" fill="#8C8C8C"/>
    <path d="M21.2235 28.5011C21.1605 28.4952 21.1107 28.5304 21.0932 28.5906C21.0771 28.6478 21.0976 28.6962 21.1576 28.7006C21.2176 28.705 21.2674 28.6639 21.2894 28.6067C21.3113 28.5466 21.2864 28.507 21.2235 28.5011Z" fill="#8C8C8C"/>
    <path d="M57.1546 17.8665C57.304 18.0748 57.4943 18.1173 57.6422 18.2522C57.6861 18.2918 57.7461 18.3241 57.752 18.3828C57.7593 18.4561 57.7051 18.4737 57.6451 18.4664C57.569 18.4576 57.4884 18.44 57.4108 18.4165C57.0931 18.3226 56.8765 18.0499 56.6612 17.7536C56.5793 18.2361 56.5983 18.2317 56.8399 18.7553C56.9643 19.0266 57.0975 19.1073 57.3215 19.1293C57.6832 19.166 58.0111 19.339 58.26 19.7277C58.3215 19.823 58.3932 19.8978 58.4884 19.9477C58.5587 19.9858 58.6495 20.0181 58.6334 20.1105C58.6187 20.1882 58.5572 20.2205 58.4606 20.2014C58.2176 20.1545 58.0726 19.977 57.9438 19.7629C57.8457 19.6001 57.7066 19.4754 57.5441 19.4608C57.3699 19.4461 57.3728 19.6103 57.3625 19.7467C57.3435 20.0137 57.3171 20.2777 57.1883 20.4903C56.9789 20.835 56.8033 20.8599 56.3582 20.6121C56.2718 20.5651 56.1488 20.5358 56.1576 20.4111C56.1664 20.2982 56.2894 20.3305 56.3714 20.3246C56.427 20.3217 56.5031 20.3275 56.5514 20.3627C56.8779 20.6062 56.8852 20.373 56.8794 20.1794C56.8633 19.6015 56.6832 19.0237 56.323 18.4561C56.2367 18.3197 56.1737 18.1877 56.1708 18.0513C56.1664 17.8475 56.1181 17.6744 55.8765 17.5864C55.613 17.4911 55.4431 17.5717 55.427 17.8269C55.4124 18.0675 55.367 18.2874 55.2294 18.4517C55.124 18.5793 55.1606 18.7201 55.3099 18.8668C55.4182 18.9738 55.5266 19.0853 55.6466 19.1689C55.815 19.2862 56.0127 19.4182 55.9599 19.6074C55.9028 19.8127 55.6862 19.7277 55.5002 19.6192C55.4607 19.5972 55.4212 19.5781 55.3816 19.5576C54.7111 19.2144 54.2704 19.273 53.8941 19.7555C53.8312 19.8362 53.7668 19.9051 53.6321 19.8758C53.4461 19.8347 53.5237 19.6778 53.4739 19.5722C53.228 19.7673 52.9996 19.9565 52.7185 20.0753C52.6101 20.1207 52.4974 20.1589 52.3964 19.9961C52.2968 19.8347 52.2017 19.8553 52.0875 19.9183C51.6658 20.1545 51.1666 20.2777 50.8562 20.7191C50.7405 20.8819 50.5443 20.9303 50.3496 20.7265C50.1168 20.483 50.4726 20.4962 50.4638 20.3393C50.2808 20.2073 50.0363 20.0254 49.9016 20.1251C49.7625 20.2278 49.9719 20.4727 50.0436 20.6531C50.1856 21.011 50.0963 21.1562 49.7435 21.1298C49.4946 21.1107 49.2003 21.3542 49.1491 21.6211C49.0978 21.891 48.969 21.9555 48.6996 21.8484C48.5737 21.7986 48.4536 21.7106 48.2867 21.7487C48.3336 21.803 48.3672 21.844 48.4024 21.8836C48.48 21.9672 48.6396 22.023 48.5546 22.1682C48.4814 22.2958 48.3482 22.2738 48.215 22.218C47.9866 22.1227 47.7831 21.9878 47.6718 21.7604C47.562 21.5375 47.4361 21.338 47.2458 21.1811C47.2004 21.143 47.1184 21.1004 47.1565 21.0315C47.1813 20.9861 47.2545 20.9567 47.3102 20.9494C47.4771 20.9259 47.6337 21.0051 47.7919 21.0653C48.2091 21.2266 48.6161 21.2251 48.9836 21.0183C49.2267 20.8819 49.2237 20.6766 48.9646 20.5358C48.1462 20.0914 47.379 19.5532 46.461 19.6661C46.3439 19.6807 46.1755 19.7071 46.1272 19.5883C46.0613 19.427 46.2648 19.4256 46.3322 19.3361C46.3395 19.3273 46.3307 19.3038 46.3293 19.2804C46.0525 19.3361 45.8168 19.0428 45.5211 19.1381C45.4537 19.1601 45.2166 19.43 45.1785 19.0486C45.0291 19.0838 44.8432 19.0428 44.77 19.2466C44.729 19.3625 44.6529 19.4446 44.5577 19.4432C44.322 19.4373 44.1448 19.4901 43.9355 19.6587C43.7598 19.7995 43.4933 19.9418 43.2166 19.889C43.1478 19.8758 43.0146 19.8978 43.0731 20.021C43.2327 20.351 43.038 20.4493 42.8052 20.5373C42.7452 20.5593 42.6808 20.5827 42.6632 20.6502C42.5695 21.0154 42.2254 21.077 41.9868 21.2676C41.9238 21.3175 41.8214 21.3072 41.8477 21.4334C41.8916 21.6387 41.7423 21.6827 41.6105 21.7076C41.3543 21.7546 41.2782 21.8382 41.4597 22.0714C41.6017 22.2518 41.5564 22.4571 41.4143 22.6419C41.2592 22.8428 41.0966 22.7695 40.9327 22.6756C40.8726 22.6419 40.7658 22.5847 40.7394 22.6785C40.653 22.9895 40.3631 23.0643 40.1567 23.2388C39.9547 23.4104 39.8902 23.6201 39.9722 23.8577C40.0366 24.0425 40.044 24.2332 40.0308 24.4312C40.0074 24.7744 40.1728 24.8917 40.5139 24.7905C40.7365 24.7245 40.918 24.5837 41.082 24.4356C41.2635 24.2713 41.3265 24.3329 41.4056 24.5074C41.5666 24.8594 41.6954 25.2246 41.8111 25.5957C41.8828 25.8259 41.997 25.9623 42.2708 25.7746C42.388 25.6939 42.5358 25.6367 42.6778 25.6133C42.9033 25.5766 42.9751 25.4769 42.9516 25.2613C42.9223 25.0046 42.9751 24.7656 43.2269 24.6042C43.4875 24.4385 43.5299 24.1921 43.3308 23.9677C43.1537 23.7683 43.1288 23.5659 43.1815 23.3077C43.2547 22.9499 43.4626 22.7255 43.7525 22.5612C43.997 22.4234 44.1829 22.2664 44.2063 21.9496C44.2283 21.6636 44.4406 21.5228 44.6763 21.4422C44.8652 21.3776 45.0218 21.4759 45.1492 21.6196C45.278 21.7648 45.1726 21.888 45.0921 21.9951C44.9516 22.1814 44.8052 22.3676 44.6382 22.5319C44.3527 22.812 44.259 23.1435 44.3176 23.538C44.382 23.9751 44.527 24.0777 44.9574 23.9531C45.1448 23.8988 45.3278 23.8225 45.5167 23.78C45.7714 23.7228 46.032 23.6861 46.2883 23.7917C46.3864 23.8313 46.5269 23.8783 46.5298 23.9912C46.5328 24.1349 46.3776 24.151 46.2634 24.1774C45.9325 24.2537 45.5914 24.2654 45.2517 24.286C44.9574 24.3036 44.8549 24.5148 45.0043 24.7626C45.0438 24.8286 45.1038 24.8844 45.1316 24.9533C45.1887 25.0926 45.1946 25.2437 45.076 25.3478C44.9384 25.4681 44.8256 25.3522 44.7319 25.2598C44.5431 25.0721 44.4406 25.2041 44.341 25.3508C44.281 25.4388 44.3059 25.54 44.3088 25.6367C44.3279 26.1559 43.9487 26.4522 43.4333 26.3114C43.3191 26.2806 43.2327 26.3143 43.1405 26.3554C42.9546 26.4405 42.7745 26.5387 42.5827 26.6106C42.3924 26.6839 42.1698 26.8922 42.0307 26.5387C41.9941 26.4449 41.8433 26.4874 41.7452 26.505C41.0688 26.6209 40.877 26.4258 41.0556 25.8039C41.0849 25.6998 41.1537 25.5693 40.9854 25.5429C40.8185 25.5165 40.7804 25.6485 40.7745 25.7775C40.7672 25.9623 40.7614 26.1471 40.7628 26.3319C40.7658 26.7734 40.7628 26.7441 40.3148 26.8394C39.9327 26.9201 39.4862 26.9582 39.3676 27.4568C39.3471 27.5448 39.2124 27.6754 39.126 27.6827C38.7541 27.712 38.5711 27.9892 38.3178 28.177C38.1187 28.3251 37.9093 28.4556 37.6458 28.4615C37.5536 28.4644 37.4745 28.4952 37.4423 28.573C37.3515 28.7885 37.1773 28.7959 36.9753 28.7753C36.8933 28.768 36.7615 28.7225 36.7352 28.8443C36.7161 28.9323 36.8201 28.9836 36.9035 29.0247C37.4189 29.2755 37.5565 29.7184 37.5375 30.2141C37.5228 30.6248 37.1919 30.814 36.7381 30.748C36.3589 30.6922 35.9738 30.6614 35.5888 30.6424C35.1979 30.6218 35.0529 30.7582 35.1042 31.1117C35.1452 31.386 35.11 31.6529 35.0002 31.9081C34.8714 32.2102 34.8172 32.5343 35.151 32.6883C35.4351 32.8203 35.6883 32.9978 35.9855 33.1092C35.9958 33.1136 36.0119 33.1107 36.0222 33.1078C36.4409 32.9626 36.8991 32.923 37.2944 32.7265C37.4848 32.6326 37.6414 32.4859 37.6473 32.2865C37.659 31.9359 37.8991 31.7658 38.2271 31.6353C38.4921 31.5297 38.7468 31.3845 38.7893 31.1073C38.8434 30.7538 39.0718 30.6526 39.4261 30.6717C39.6179 30.682 39.82 30.7113 39.9971 30.6116C40.6369 30.2508 40.7423 30.4238 41.1332 30.8433C41.4817 31.2173 41.8462 31.5678 42.3894 31.7423C42.6764 31.8347 42.8023 32.065 42.8433 32.329C42.8535 32.3935 42.8008 32.483 42.937 32.5211C43.0321 32.4023 42.9897 32.2718 42.9868 32.1486C42.9794 31.7614 42.9765 31.7614 43.4011 31.8641C43.2357 31.6353 42.9853 31.5458 42.7525 31.4432C42.142 31.1733 41.8843 30.6482 41.5783 30.1657C41.4802 30.0117 41.6632 29.9369 41.7525 29.8431C41.7979 29.7947 41.8975 29.7287 41.9268 29.8035C42.0117 30.0161 42.2782 30.0073 42.4085 30.1628C42.6705 30.4752 43.0102 30.7201 43.3674 30.946C43.6251 31.1088 43.77 31.3258 43.8857 31.5898C44.0394 31.9418 44.2473 32.2791 44.628 32.4977C44.6924 32.5343 44.7568 32.6209 44.8432 32.5197C44.871 32.4889 44.8374 32.3833 44.9398 32.4434C45.0174 32.4903 44.9823 32.5563 44.9325 32.6135C44.8666 32.6883 44.7598 32.6927 44.6748 32.7353C44.5753 32.7851 44.5402 32.8687 44.6046 32.9567C44.6734 33.0506 44.7583 32.9846 44.8315 32.9509C45.3293 32.7235 45.3586 32.5783 45.0057 32.2205C44.9428 32.1559 44.8959 32.0767 44.8579 31.9975C44.8271 31.9315 44.852 31.8626 44.9325 31.8347C45.2927 31.713 45.6133 31.5077 46.0438 31.5649C46.3585 31.6074 46.5225 31.364 46.4566 31.1469C46.3014 30.6321 46.6191 30.2713 46.8578 29.8812C46.9983 29.6524 47.1711 29.4441 47.4624 29.3591C47.7069 29.2872 48.0056 29.4031 47.9646 29.5659C47.8797 29.8944 48.1432 29.8944 48.3497 29.9604C48.4361 29.9883 48.5224 29.9765 48.5664 29.8944C48.6059 29.8196 48.5444 29.7712 48.4844 29.7345C48.2091 29.5629 48.3497 29.4529 48.5459 29.3635C48.704 29.2916 48.865 29.2212 49.0334 29.1787C49.152 29.1493 49.2984 29.1039 49.4082 29.2036C49.5327 29.3151 49.4346 29.4353 49.376 29.5292C49.2267 29.7683 49.3043 29.9208 49.5575 30.066C49.8342 30.2244 50.1036 30.4018 50.3525 30.5954C50.7024 30.8682 50.6351 31.1469 50.2032 31.2716C49.7113 31.4109 49.2398 31.2848 48.7757 31.1425C48.5049 31.0604 48.2091 30.943 47.9646 31.0882C47.5488 31.3346 46.9486 31.2672 46.6455 31.7071C46.6191 31.7453 46.5093 31.7482 46.4391 31.7482C46.1521 31.7482 46.0716 31.8729 46.1419 32.1075C46.1858 32.2542 46.2077 32.4053 46.2546 32.5505C46.3629 32.8893 46.8622 33.1415 47.2179 32.9993C47.4463 32.9083 47.6542 32.9259 47.8665 32.9641C48.133 33.0125 48.3848 33.0095 48.6293 32.9098C48.8592 32.8159 49.0056 32.8629 48.9822 33.099C48.9251 33.6827 48.8226 34.262 48.5122 34.7929C48.4009 34.9821 48.2121 35.1317 47.9236 35.032C47.5913 34.9176 47.2692 34.8927 46.9383 35.0408C46.8314 35.0892 46.7158 35.0555 46.6045 35.0305C46.0086 34.8897 45.4113 34.7548 44.8227 34.6008C44.4567 34.5055 44.2488 34.6345 44.1082 34.9132C43.8564 35.4075 43.732 35.4485 43.161 35.2168C43.0014 35.1523 42.8565 35.0643 42.7027 34.9895C42.3528 34.8193 42.0175 34.6228 41.6266 34.5289C41.0703 34.3955 40.9341 34.2107 41.0469 33.7267C41.1391 33.3278 40.9429 32.9978 40.5871 33.0359C39.8375 33.1166 39.0748 33.0902 38.3354 33.2574C37.7571 33.3879 37.1832 33.5448 36.6034 33.6798C36.4189 33.7223 36.2286 33.737 36.0822 33.5947C35.9387 33.4539 35.8186 33.495 35.741 33.649C35.5741 33.9834 35.2916 34.2195 34.9358 34.4058C34.6825 34.5378 34.583 34.7709 34.6122 34.9939C34.6723 35.4471 34.378 35.7184 34.0178 35.9706C33.9402 36.0249 33.8495 36.0674 33.7704 36.1202C33.1906 36.5016 32.9608 37.1308 32.3781 37.5062C32.3297 37.537 32.3327 37.6236 32.3136 37.6852C32.2068 38.0298 32.2273 38.3847 32.2082 38.7367C32.1877 39.1092 32.2551 39.4935 32.1101 39.8514C31.9506 40.243 31.8451 40.6184 32.3312 40.9513C32.359 40.9704 32.3664 41.01 32.3839 41.0393C32.7002 41.5629 33.2053 41.9941 33.4088 42.591C33.5801 43.0912 34.2038 43.3566 34.7323 43.6279C34.8567 43.6925 35.0061 43.7335 35.1496 43.713C36.1671 43.5678 37.2564 43.7159 38.2314 43.3596C38.6443 43.2085 39.0367 43.3376 39.2768 43.6206C39.5125 43.8963 39.7307 43.9609 40.0938 43.8714C40.3997 43.7951 40.6252 43.9169 40.7028 44.1955C40.7672 44.4229 40.7511 44.6487 40.7248 44.8761C40.6516 45.5067 40.5813 46.133 41.2357 46.6389C41.3821 46.7519 41.5007 46.9279 41.5461 47.0892C41.6149 47.3297 41.7877 47.5204 41.896 47.736C42.1493 48.2376 42.3279 48.7744 42.1127 49.3082C41.9604 49.6866 41.8345 50.0679 41.7262 50.4551C41.6559 50.703 41.672 50.9552 41.8096 51.1884C42.1727 51.8015 42.3909 52.4468 42.5022 53.1171C42.5636 53.4881 42.6793 53.8445 42.8506 54.1818C43.0775 54.6292 43.3513 55.056 43.5753 55.4989C43.6939 55.7321 43.8989 55.9726 43.6339 56.2469C43.5651 56.3173 43.6192 56.417 43.6924 56.4801C43.915 56.6663 44.1405 56.8189 44.4728 56.7191C44.6602 56.6619 44.8608 56.6443 45.0555 56.6047C45.6148 56.4933 46.2312 56.4918 46.685 56.0767C47.3556 55.4651 47.9471 54.77 48.0832 53.8959C48.1286 53.6069 48.2662 53.3811 48.5415 53.2285C48.8885 53.0349 48.988 52.7797 48.9734 52.463C48.9631 52.2474 48.9412 52.0332 48.8621 51.8396C48.786 51.6534 48.8445 51.5111 48.9968 51.3615C49.2882 51.0755 49.6278 50.8394 49.9865 50.6194C50.4009 50.3657 50.6863 50.0357 50.7347 49.6206C50.7947 49.1 50.7303 48.6042 50.5429 48.1144C50.3686 47.6597 50.1315 47.1801 50.373 46.6565C50.7347 45.8748 51.2969 45.1855 52.0626 44.6194C52.5399 44.2659 52.9088 43.8597 53.2251 43.4109C53.755 42.657 54.0742 41.8504 54.3787 41.0217C54.0025 41.1273 53.6409 41.2359 53.2748 41.3239C52.7448 41.4529 52.1533 41.6759 51.7624 41.2403C51.5399 40.9939 51.31 40.7431 51.1007 40.4835C50.7581 40.0567 50.3291 39.6812 49.9616 39.2632C49.764 39.0388 49.5868 38.8467 49.5912 38.5607C49.5956 38.2615 49.4741 38.0005 49.3365 37.7277C49.0349 37.1278 48.6117 36.594 48.193 36.0543C48.0832 35.912 47.9412 35.7067 48.1388 35.5893C48.3541 35.4632 48.3541 35.7683 48.5063 35.8196C48.7333 35.582 48.7611 35.5776 48.9939 35.8152C49.313 36.1437 49.54 36.5162 49.6571 36.9313C49.6893 37.0442 49.7127 37.1396 49.8591 37.1777C50.1681 37.2584 50.2998 37.4666 50.3262 37.7145C50.3833 38.241 50.7112 38.6355 51.1358 38.9846C51.3993 39.2002 51.5692 39.4436 51.5985 39.7648C51.619 39.998 51.6775 40.2327 51.7668 40.4512C51.881 40.7343 52.0684 40.7753 52.3949 40.6199C53.0538 40.306 53.7199 40.0024 54.3568 39.6607C55.1342 39.2456 55.9233 38.8409 56.3962 38.1354C56.5251 37.9433 56.5646 37.7218 56.7154 37.5605C56.976 37.2789 56.815 37.1777 56.5339 37.0648C56.2249 36.9416 55.897 36.8081 55.7682 36.5236C55.6642 36.2933 55.5939 36.2962 55.4519 36.4942C55.263 36.7597 54.9483 36.899 54.6335 37.0237C54.4768 37.0868 54.2865 37.1278 54.1621 36.9489C53.8224 36.459 53.5164 35.9487 53.1109 35.4881C53.004 35.3664 52.8122 35.2359 53.0025 35.0672C53.1958 34.8956 53.4315 34.9029 53.6643 35.0188C53.799 35.0863 53.8854 35.1904 53.9761 35.296C54.3802 35.7727 54.9058 36.0191 55.6188 35.846C55.7857 35.8049 55.8955 35.8313 55.9775 35.9443C56.14 36.1686 56.3801 36.2332 56.6861 36.242C57.0068 36.2522 57.3259 36.2126 57.6422 36.2214C58.0726 36.2332 58.5484 36.066 58.9232 36.2508C59.3156 36.4444 59.6787 36.6614 60.137 36.7436C60.2497 36.7641 60.4151 36.8404 60.2248 36.9606C60.0374 37.0794 60.0638 37.163 60.2321 37.2481C60.4195 37.342 60.5791 37.3126 60.6728 37.1352C60.7182 37.0486 60.7109 36.9034 60.8368 36.9034C60.9949 36.9034 61.0169 37.0618 61.0491 37.163C61.1018 37.3229 61.1208 37.493 61.1355 37.6602C61.1618 37.955 61.2145 38.241 61.3492 38.5123C61.7182 39.2559 62.1281 39.9716 62.6259 40.6345C62.7372 40.7827 62.8762 40.9176 63.008 41.0657C63.0651 41.0144 63.0973 40.9924 63.1178 40.9645C63.5673 40.3647 63.6288 39.7428 63.5658 39.1151C63.5409 38.8585 63.6229 38.6649 63.8821 38.4654C64.5277 37.9667 65.087 37.408 65.5043 36.792C65.5716 36.6937 65.6463 36.6174 65.7312 36.5558C65.7312 36.462 65.7341 36.3696 65.7341 36.2757C65.7341 28.9645 62.5878 22.3911 57.5763 17.8372C57.4445 17.868 57.3215 17.9208 57.1488 17.8709L57.1546 17.8665ZM47.0057 23.9135C46.7407 23.9384 46.7055 23.7081 46.6367 23.5453C46.5855 23.4221 46.707 23.3899 46.8065 23.3796C47.0159 23.3576 47.2955 23.56 47.3248 23.7536C47.3424 23.8739 47.3292 23.8812 47.0042 23.912L47.0057 23.9135ZM54.4739 32.3393C54.4666 32.5915 54.0947 32.5431 53.9132 32.615C53.3305 32.6517 52.982 32.3026 53.1065 31.8406C53.1943 31.5136 53.269 31.2408 52.903 30.9401C52.6072 30.6966 52.4842 30.3094 52.3583 29.9516C52.2895 29.758 52.3305 29.6201 52.4608 29.4837C52.7243 29.2065 53.086 29.0936 53.4652 29.0188C53.6233 28.988 53.7389 29.0775 53.7799 29.2285C53.818 29.3708 53.7653 29.4265 53.6013 29.4661C53.2148 29.5585 53.127 30.0103 53.4359 30.2786C53.6145 30.4341 53.7741 30.5852 53.8048 30.8242C53.8268 30.987 53.9322 31.1029 54.0918 30.8932C54.1284 30.8448 54.1723 30.7773 54.2631 30.8301C54.348 30.88 54.4212 30.946 54.4432 31.0325C54.4695 31.141 54.3612 31.144 54.2807 31.1557C54.0039 31.1982 53.9337 31.2657 54.1869 31.4725C54.4695 31.7027 54.4812 32.0474 54.4724 32.3378L54.4739 32.3393ZM55.8765 29.868C55.7345 29.9017 55.6774 29.7756 55.6569 29.6627C55.6232 29.4735 55.8179 29.1537 55.9673 29.1655C56.1239 29.1787 56.0873 29.3019 56.1269 29.3781C56.1386 29.5893 56.14 29.8049 55.8765 29.868Z" fill="#8C8C8C"/>
    <path d="M18.5807 28.8707C18.7242 28.8531 18.8706 28.8237 18.9468 28.9675C18.7125 29.0393 18.4929 29.1273 18.3157 29.2813C18.2587 29.3312 18.1532 29.3957 18.2059 29.4661C18.2616 29.5395 18.3597 29.4764 18.4299 29.4339C18.6261 29.3136 18.8399 29.252 19.0536 29.186C19.2894 29.1127 19.5368 29.0672 19.7242 28.8839C19.7813 28.8663 19.8384 28.8428 19.8955 28.834C19.9819 28.8208 20.1078 28.8501 20.1019 28.724C20.0975 28.6111 19.9775 28.6595 19.8867 28.6859C19.8047 28.7093 19.7286 28.7431 19.6729 28.8105C19.4343 28.9 19.1034 29.1757 19.121 28.7123C19.1225 28.6668 19.0917 28.6448 19.0331 28.6565C18.7403 28.7181 18.7067 28.5113 18.6188 28.3808C18.5163 28.2268 18.3597 28.0215 18.8487 28.0259C18.9512 28.0259 19.0727 27.9555 19.0946 27.847C19.1181 27.737 18.998 27.7472 18.9131 27.737C18.7916 27.7223 18.6671 27.7326 18.5324 27.7604C18.2279 27.822 17.9483 27.9423 17.6701 28.1007C17.5896 28.1476 17.468 28.2048 17.3963 28.1623C17.2777 28.5069 17.1664 28.856 17.0625 29.2065C17.0889 29.1992 17.1137 29.1919 17.1401 29.1875C17.6262 29.1171 18.0976 28.9323 18.5778 28.8721L18.5807 28.8707Z" fill="#8C8C8C"/>
    <path d="M22.6539 52.0523C22.4226 51.7707 22.5075 51.6211 22.7344 51.5302C23.0463 51.407 23.3713 51.2911 23.6817 51.1562C23.8501 51.0828 24.0214 51.0139 24.2644 51.0608C24.6904 51.143 24.8647 50.986 24.9759 50.7309C25.2234 50.1647 25.2731 49.5341 25.118 48.8301C25.0345 48.4488 25.0828 48.1217 25.4181 47.8768C25.6772 47.6861 25.872 47.4207 26.0184 47.1464C26.2746 46.6668 26.3639 46.2928 25.5191 45.8426C25.4254 45.7927 25.3332 45.7267 25.2644 45.6563C24.9686 45.3527 24.5865 45.2383 24.1809 45.1855C23.5982 45.1107 23.0946 44.8951 22.6583 44.5123C22.2323 44.1383 22.039 44.1266 21.6408 44.3965C21.5075 44.4874 21.3846 44.5842 21.1547 44.5387C21.0098 44.5109 20.815 44.5006 20.7667 44.3789C20.7199 44.2601 20.9146 44.263 21.0244 44.2322C21.1781 44.1882 21.386 44.1926 21.3758 44.0049C21.3728 43.9638 21.3538 43.9139 21.2923 43.9007C21.0991 43.8597 20.9922 43.9535 20.856 44.0063C20.6379 44.0899 20.4871 44.2703 20.1357 44.2293C20.2148 44.0181 20.3348 43.8523 20.5164 43.7453C20.8341 43.5575 21.1196 43.386 20.6628 42.9914C20.6174 42.9518 20.6306 42.8712 20.6247 42.8096C20.6145 42.6805 20.55 42.5602 20.4314 42.4561C20.0903 42.1569 19.7228 41.8959 19.2177 41.8343C19.0128 41.8093 18.8063 41.7521 18.6497 41.6407C18.0845 41.2432 17.5706 40.7973 17.1973 40.3119C17.0275 40.0904 16.8796 40.0347 16.6585 40.0347C16.5458 40.0347 16.4374 40.0274 16.3306 40.0142C17.0831 45.008 19.3173 49.515 22.569 53.0716C22.6422 52.8648 22.7008 52.6463 22.7637 52.4292C22.7945 52.3236 22.774 52.1916 22.6554 52.0494L22.6539 52.0523Z" fill="#8C8C8C"/>
    <path d="M19.7739 23.1567C19.7329 23.2227 19.6904 23.2887 19.6509 23.3547C19.7402 23.2725 19.7739 23.2095 19.7739 23.1567Z" fill="#8C8C8C"/>
    <path d="M19.1358 27.2544C19.9177 27.25 20.6936 27.2706 21.512 27.0608C21.8254 26.9816 22.0098 26.7895 22.0391 26.4302C22.0596 26.1765 21.8546 26.1794 21.638 26.2029C21.4901 26.219 21.3378 26.2571 21.1885 26.2733C21.1124 26.2821 21.0172 26.2923 21.004 26.2087C20.9923 26.1266 21.0728 26.0767 21.1475 26.0269C21.3422 25.8993 21.5428 25.8553 21.7478 25.8567C21.758 25.7409 21.6614 25.7262 21.6087 25.6822C21.411 25.5194 21.0655 25.4138 21.045 25.1953C21.0025 24.7494 20.7668 24.374 20.9586 23.8577C21.0216 23.6876 20.9498 23.5879 20.7449 23.7272C20.414 23.9516 20.1036 24.0337 19.7595 24.0982C19.5473 24.1378 19.4887 24.0836 19.4506 23.9706C19.4316 23.9164 19.4067 23.8548 19.3935 23.7917C18.6322 25.1058 17.988 26.4962 17.4727 27.9482C17.4902 27.9364 17.5063 27.9262 17.5224 27.9174C18.0319 27.5962 18.5502 27.2574 19.1373 27.2544H19.1358Z" fill="#8C8C8C"/>
    <path d="M26.0986 22.3926C26.2289 22.1579 26.2831 21.9291 26.2597 21.7062C26.4471 21.5214 26.551 21.3322 26.6023 21.1577C26.6857 21.0609 26.7589 20.9406 26.8087 20.7925C26.8277 20.7338 26.8424 20.6737 26.8526 20.6135C27.0474 20.4038 27.2523 20.0841 27.2333 19.6558C27.2318 19.6074 27.226 19.5502 27.2128 19.4872C27.2611 19.3992 27.3036 19.3024 27.3372 19.1938C27.5056 18.6615 27.3782 18.2156 27.1132 17.9208C27.1088 17.8211 27.1015 17.7301 27.0942 17.648C27.0869 17.5629 27.0796 17.4881 27.081 17.4324C27.0825 17.3019 27.0678 17.1934 27.0547 17.1186C27.062 17.0687 27.0678 17.0188 27.0708 16.9719C28.4485 15.9892 29.9169 15.1621 31.4601 14.4977C31.504 14.6282 31.5728 14.7499 31.6665 14.857C31.8715 15.0931 32.1716 15.2281 32.4923 15.2281C32.706 15.2281 32.8773 15.1709 32.9695 15.1386C33.2126 15.0565 33.4439 14.9523 33.6591 14.8526C33.8246 14.7763 33.9841 14.7191 34.1408 14.6825C33.9402 14.8467 33.7396 15.1166 33.7045 15.5522C33.3809 15.759 33.2506 16.0508 33.1979 16.2356C33.1628 16.3618 33.1482 16.4894 33.154 16.614C32.9329 16.658 32.7309 16.7622 32.5728 16.9162C32.1848 16.9514 31.8583 17.1596 31.6636 17.4969C31.5245 17.7389 31.4513 18.0689 31.5582 18.4033C31.5245 18.5603 31.5289 18.7025 31.5509 18.8243C31.4088 18.9812 31.3312 19.1454 31.2917 19.2965C31.2449 19.2965 31.1995 19.2921 31.1585 19.2848C31.0706 19.2701 30.9813 19.2613 30.8935 19.2613C30.5172 19.2613 30.1468 19.3948 29.8174 19.6485C29.526 19.7145 29.179 19.8993 28.9199 20.3613C28.8789 20.4361 28.835 20.4757 28.8116 20.4771C27.7765 20.5475 27.0825 21.275 26.6682 21.7091C26.4324 21.957 26.2465 22.2034 26.1118 22.4527C26.106 22.4322 26.1016 22.4116 26.0957 22.3896L26.0986 22.3926Z" fill="#727272"/>
    <path d="M42.3413 33.2031C42.4803 33.2427 42.5169 33.1474 42.5155 33.0535C42.5111 32.8438 42.372 32.7705 42.047 32.8115C42.0235 32.8174 41.7952 32.7705 41.8186 32.9142C41.8537 33.1327 42.1377 33.1459 42.3427 33.2031H42.3413Z" fill="#727272"/>
    <path d="M38.8318 32.2938C39.0002 32.244 39.1612 32.1721 39.3149 32.112C39.3032 32.0034 39.2373 31.9536 39.1671 31.9697C39.0089 32.0064 38.8215 32.021 38.7513 32.1897C38.7308 32.2396 38.7498 32.3173 38.8318 32.2924V32.2938Z" fill="#727272"/>
    <path d="M44.7043 55.7995C44.6648 55.6353 44.5945 55.4593 44.4891 55.2701C44.4774 55.2481 44.4642 55.2261 44.4525 55.2041C44.3281 54.9592 44.1934 54.723 44.0645 54.4957C43.9445 54.2845 43.8303 54.0851 43.7293 53.8871C43.6077 53.6465 43.5228 53.3869 43.4774 53.1171C43.3427 52.3104 43.0763 51.558 42.6824 50.8805C42.7908 50.4977 42.9035 50.1647 43.028 49.8538C43.4116 48.9049 43.0675 48.0249 42.7761 47.4471C42.7132 47.3209 42.6429 47.2109 42.5858 47.1229C42.5507 47.0687 42.5038 46.9939 42.4921 46.966C42.3896 46.6023 42.1466 46.2474 41.8303 46.0024C41.6649 45.8748 41.6298 45.8191 41.7059 45.1606C41.7425 44.8526 41.763 44.4845 41.6517 44.0885C41.4673 43.43 40.9124 43.0046 40.2404 43.0046C40.1393 43.0046 40.0354 43.0149 39.9329 43.034C39.5698 42.6629 39.075 42.4517 38.5567 42.4517C38.3224 42.4517 38.0882 42.4942 37.8612 42.5764C37.3957 42.7465 36.832 42.767 36.2346 42.7876C35.8686 42.8008 35.4909 42.814 35.1058 42.8624L34.9975 42.8081C34.7808 42.6996 34.4236 42.5206 34.3343 42.4107C34.1498 41.8856 33.8394 41.4925 33.5642 41.1464C33.447 40.9983 33.3343 40.856 33.2509 40.7255C33.2143 40.6478 33.1454 40.5231 33.0239 40.4043C33.2055 39.9599 33.1996 39.5346 33.1938 39.2222C33.1938 39.1269 33.1908 39.0374 33.1952 38.9641C33.1996 38.8702 33.2025 38.7763 33.2055 38.6839C33.2099 38.5329 33.2128 38.3965 33.2289 38.2835C33.4851 38.0621 33.6784 37.8216 33.8423 37.6177C34.0049 37.4153 34.1454 37.2408 34.3006 37.1396C34.3196 37.1278 34.3387 37.1176 34.3562 37.1073C34.4133 37.075 34.4939 37.0296 34.5773 36.9709C34.8628 36.7685 35.5787 36.264 35.6066 35.3473C35.8306 35.2095 36.0238 35.0569 36.1878 34.8868C36.2434 34.8927 36.3005 34.8956 36.3576 34.8956C36.4996 34.8956 36.6417 34.878 36.8042 34.8399C37.0853 34.7754 37.3664 34.705 37.646 34.6346C37.9403 34.5612 38.236 34.4864 38.5318 34.419C38.9256 34.3295 39.3561 34.306 39.8114 34.2796C39.867 34.2767 39.9227 34.2738 39.9783 34.2694C40.0105 34.8179 40.3062 35.4324 41.3648 35.6861C41.5624 35.7331 41.7689 35.8387 42.0075 35.9589C42.0822 35.9971 42.1583 36.0352 42.2344 36.0719C42.2798 36.0939 42.3237 36.1173 42.3691 36.1423C42.4804 36.2009 42.6063 36.2684 42.7556 36.3285C43.0675 36.4546 43.3325 36.5382 43.6209 36.5382C44.2549 36.5382 44.6223 36.1423 44.8244 35.8269C45.2153 35.9252 45.6062 36.0161 45.9854 36.1056L46.369 36.1951C46.4598 36.2171 46.6106 36.2523 46.7906 36.2523C46.877 36.2523 46.9619 36.2449 47.0439 36.2288C47.1215 36.5221 47.2884 36.7377 47.3689 36.8418L47.4319 36.924C47.8096 37.4109 48.1654 37.8699 48.4084 38.351C48.4568 38.4463 48.5563 38.6443 48.5549 38.7133C48.5446 39.3806 48.9135 39.8015 49.1595 40.0787L49.1785 40.1007C49.3557 40.3031 49.5387 40.4879 49.7144 40.6668C49.9252 40.8809 50.1243 41.0833 50.2883 41.2857C50.4845 41.5307 50.6895 41.758 50.8886 41.9765L50.9881 42.0865C51.2312 42.3564 51.6645 42.6776 52.3527 42.6776C52.4332 42.6776 52.5108 42.6732 52.5869 42.6658C52.5196 42.7773 52.4493 42.8858 52.3732 42.9944C52.0891 43.3992 51.7919 43.7086 51.4362 43.9711C50.546 44.6297 49.8711 45.4466 49.4304 46.397C49.0292 47.2652 49.3279 48.022 49.5255 48.5221L49.5738 48.6438C49.7042 48.9812 49.7466 49.317 49.7056 49.669C49.7027 49.6925 49.6471 49.7908 49.4333 49.9213C49.1258 50.1105 48.6676 50.4067 48.2635 50.8027C47.6134 51.4407 47.7921 52.1227 47.8989 52.3867C47.9121 52.419 47.9224 52.4791 47.9297 52.5642C47.448 52.8663 47.1479 53.3283 47.0586 53.9061C46.9824 54.3901 46.6501 54.88 45.9781 55.493C45.8463 55.6133 45.5652 55.6573 45.2387 55.7071C45.1026 55.7277 44.9664 55.7497 44.8332 55.7761C44.7878 55.7849 44.7439 55.7922 44.6999 55.7995H44.7043ZM52.543 39.583C52.4405 39.1195 52.1755 38.7103 51.7539 38.3642C51.3849 38.0606 51.322 37.8861 51.3102 37.7688C51.2502 37.2217 50.9603 36.7832 50.5123 36.5309C50.3352 36.0704 50.0628 35.6495 49.6968 35.274C49.6558 35.2315 49.6046 35.1801 49.5446 35.1259C49.8213 34.5187 49.9135 33.9056 49.9662 33.3703C50.0043 32.9743 49.8798 32.6927 49.7598 32.5197C49.9999 32.5182 50.2341 32.4845 50.4582 32.4199C51.2985 32.1809 51.4976 31.5913 51.5445 31.3493C51.5635 31.2525 51.5796 31.097 51.5504 30.9108C51.6689 31.1953 51.8344 31.5033 52.1008 31.7688C51.9749 32.2571 52.0701 32.7558 52.3629 33.1386C52.6835 33.5595 53.2106 33.8 53.808 33.8C53.8548 33.8 53.9046 33.7986 53.9529 33.7956L54.111 33.7854L54.2076 33.7472C54.2179 33.7458 54.2281 33.7443 54.2384 33.7428C55.3174 33.5786 55.4536 32.8438 55.4624 32.5358C55.4668 32.3613 55.477 32.0195 55.354 31.6544C55.4419 31.4461 55.4624 31.2158 55.4111 30.9841C55.5414 31.0325 55.6776 31.056 55.8093 31.056C55.903 31.056 55.9967 31.0442 56.0904 31.0222C56.4199 30.943 57.1753 30.6365 57.1153 29.494L57.1036 29.2711L57.0494 29.1684C56.8869 28.595 56.4228 28.3574 56.0275 28.3251L55.9865 28.3222H55.9382C55.5839 28.3222 55.2501 28.4879 54.9982 28.7871C54.9075 28.8956 54.8196 29.032 54.7523 29.1889C54.7479 29.1699 54.7435 29.1508 54.7376 29.1303C54.581 28.5554 54.0861 28.1682 53.5078 28.1682C53.4229 28.1682 53.3365 28.177 53.2501 28.1931C52.7802 28.2855 52.1814 28.4571 51.7085 28.9528C51.3132 29.3693 51.196 29.8929 51.3761 30.4312C51.2824 30.2772 51.1477 30.1188 50.9545 29.9692C50.7964 29.846 50.628 29.7257 50.4508 29.6113C50.4962 29.1889 50.3044 28.8384 50.0672 28.6243C49.8359 28.4146 49.5431 28.3031 49.221 28.3031C49.0321 28.3031 48.8784 28.3427 48.7862 28.3662L48.7686 28.3706C48.5344 28.4292 48.3279 28.5172 48.1493 28.5979C47.9795 28.5334 47.7935 28.4996 47.6003 28.4996C47.4509 28.4996 47.3031 28.5202 47.1625 28.5612C46.4407 28.771 46.0923 29.3385 45.9781 29.5248C45.9473 29.5747 45.9151 29.6231 45.8844 29.6715C45.7189 29.9267 45.4803 30.2948 45.4071 30.7656C45.1641 30.8184 44.9591 30.902 44.7922 30.9694C44.738 30.9914 44.6838 31.0134 44.6282 31.034C44.4774 30.7773 44.249 30.4913 43.8844 30.2625C43.6326 30.1027 43.3486 29.9105 43.1612 29.6861C42.9972 29.4911 42.8098 29.3825 42.6751 29.3165C42.4775 29.076 42.1817 28.9308 41.8582 28.9308C41.5595 28.9308 41.2594 29.0599 41.028 29.2887L41.0251 29.2916C40.905 29.3884 40.8099 29.4896 40.7352 29.5923C40.6649 29.582 40.5917 29.5761 40.5156 29.5761C40.1642 29.5761 39.8553 29.7023 39.5918 29.8416C39.5771 29.8416 39.46 29.8328 39.46 29.8328C39.4146 29.8299 39.3707 29.8299 39.3282 29.8299C39.0222 29.8299 38.7485 29.8959 38.5171 30.0191C38.4966 29.8152 38.4542 29.6319 38.3971 29.4676C38.6269 29.362 38.7982 29.2359 38.8978 29.1625C39.0047 29.0833 39.0954 29.0027 39.1672 28.9367C39.1965 28.9103 39.2331 28.878 39.2609 28.8546C39.6899 28.7886 40.0939 28.46 40.2696 28.0494C40.3077 28.042 40.58 27.9863 40.58 27.9863C40.8743 27.9247 41.0998 27.8338 41.2681 27.715C41.3121 27.7179 41.3589 27.7194 41.4058 27.7194C41.4526 27.7194 41.5039 27.7179 41.5551 27.715C41.7484 27.8499 41.9782 27.9218 42.2271 27.9218C42.5375 27.9218 42.7761 27.803 42.9035 27.7384L42.9343 27.7223C43.0982 27.6592 43.2446 27.5874 43.3749 27.5243C43.3852 27.5199 43.394 27.5155 43.4042 27.5096C43.4891 27.5214 43.5755 27.5272 43.659 27.5272C44.1158 27.5272 44.536 27.3542 44.839 27.0389C44.9737 26.8995 45.0791 26.7382 45.1567 26.5593C45.3602 26.5197 45.552 26.4258 45.7189 26.2806C45.9883 26.0459 46.1391 25.7306 46.1611 25.3889C46.2621 25.3742 46.3661 25.3552 46.47 25.3302L46.489 25.3258C46.7248 25.276 46.9063 25.1924 47.0469 25.0912C47.0571 25.0912 47.0688 25.0897 47.0791 25.0882C47.4012 25.056 47.7979 25.0178 48.0937 24.6365C48.2825 24.3931 48.3528 24.1012 48.3016 23.7697C48.284 23.6524 48.2489 23.538 48.2005 23.4309C48.2576 23.4383 48.3147 23.4427 48.3718 23.4427C48.7364 23.4427 49.0702 23.2828 49.2957 23.0085C49.587 22.9059 49.8696 22.6844 50.0277 22.2987C50.2986 22.2606 50.4977 22.1579 50.6426 22.0435C51.0452 22.0259 51.4127 21.822 51.6572 21.4759C51.7216 21.3835 51.8637 21.3102 52.0877 21.2061C52.2311 21.2662 52.3863 21.2985 52.5474 21.2985C52.7772 21.2985 52.9573 21.2339 53.0876 21.1797C53.1916 21.1357 53.2897 21.0858 53.3804 21.0345C53.3834 21.0345 53.3878 21.0359 53.3907 21.0374C53.4829 21.0579 53.5752 21.0682 53.6659 21.0682C53.9383 21.0682 54.3321 20.9787 54.6659 20.5505C54.6703 20.5461 54.6732 20.5417 54.6762 20.5373C54.7201 20.5505 54.7918 20.5783 54.8958 20.6311L54.9719 20.6693C55.0187 20.6971 55.0729 20.7265 55.1329 20.7558C55.171 21.0389 55.3277 21.4261 55.8518 21.6739L55.8445 21.6695C56.1022 21.8132 56.4169 21.9614 56.7888 21.9614C57.1212 21.9614 57.5882 21.8411 57.9659 21.2853C58.0523 21.319 58.1445 21.3469 58.2456 21.3659C58.3246 21.3821 58.4066 21.3894 58.4871 21.3894C58.7478 21.3894 58.9879 21.3058 59.1797 21.1606C62.6934 25.3918 64.6729 30.7538 64.7036 36.3109C64.6846 36.3359 64.6655 36.3623 64.648 36.3886C64.3112 36.8844 63.8383 37.3698 63.2439 37.8289C62.8706 38.1163 62.6437 38.461 62.5631 38.857C62.4548 38.659 62.345 38.4493 62.2352 38.2278C62.1766 38.1105 62.1429 37.9638 62.1239 37.7365C62.1034 37.5106 62.0741 37.2672 61.9907 37.0149C61.7359 36.1291 61.0332 36.0572 60.8223 36.0557C60.8004 36.0557 60.7652 36.0557 60.7199 36.0616C60.594 35.9912 60.4505 35.9399 60.2953 35.912C60.0654 35.8709 59.8458 35.758 59.5676 35.6172C59.4944 35.5805 59.4227 35.5424 59.348 35.5072C59.0859 35.3781 58.7975 35.3165 58.4637 35.3165C58.2792 35.3165 58.1079 35.3356 57.9571 35.3517C57.8459 35.3635 57.7419 35.3752 57.6658 35.3752H57.6482C57.6072 35.3752 57.5662 35.3737 57.5238 35.3737C57.3847 35.3737 57.2441 35.3796 57.1021 35.3869C56.9923 35.3928 56.8825 35.3972 56.7727 35.3972C56.7464 35.3972 56.6805 35.3957 56.6746 35.3957C56.4316 35.1303 56.0934 34.9821 55.7274 34.9821C55.6073 34.9821 55.4858 34.9968 55.3569 35.0291C55.2837 35.0467 55.2164 35.0555 55.1564 35.0555C55.0788 35.0555 54.9324 35.0555 54.723 34.8076C54.6015 34.6654 54.4082 34.4366 54.0905 34.2796C53.8358 34.1535 53.5766 34.0904 53.319 34.0904C52.9427 34.0904 52.5942 34.2239 52.3087 34.4762C52.0481 34.7064 51.8988 35.0129 51.8871 35.3385C51.8681 35.8548 52.1902 36.1833 52.3102 36.308L52.3307 36.33C52.5825 36.616 52.8021 36.946 53.0349 37.295C53.1242 37.4285 53.2135 37.562 53.3043 37.694C53.5532 38.0533 53.9441 38.2586 54.376 38.2586C54.5707 38.2586 54.7684 38.2175 54.9792 38.1339C55.0919 38.0885 55.2091 38.0401 55.3262 37.9843C54.9865 38.329 54.4756 38.6018 53.9397 38.8878L53.8519 38.9347C53.4273 39.1621 52.9939 39.3703 52.5371 39.5859L52.543 39.583ZM36.0121 32.1823C36.0429 32.0767 36.0663 31.9711 36.0824 31.8641C36.2566 31.8802 36.4177 31.8993 36.5685 31.9213C36.6124 31.9271 36.6578 31.933 36.7017 31.9374C36.6885 31.9755 36.6768 32.0137 36.668 32.0518C36.5553 32.0885 36.4206 32.1207 36.283 32.153C36.2112 32.1706 36.1351 32.1882 36.0575 32.2073C36.0429 32.1999 36.0282 32.1911 36.0136 32.1823H36.0121ZM42.1495 23.9824C42.0705 23.8709 41.9841 23.7844 41.8962 23.7169C41.9826 23.6553 42.0617 23.5835 42.1349 23.4999C42.1188 23.6671 42.1232 23.8284 42.1495 23.9824ZM45.8785 22.7724C46.5256 21.9174 45.9942 21.2413 45.8814 21.1151C45.5242 20.7133 45.1406 20.5989 44.8566 20.5813C44.9723 20.5475 45.0835 20.4962 45.1845 20.4302C45.2153 20.4331 45.246 20.4346 45.2768 20.4346C45.2987 20.4346 45.3207 20.4346 45.3412 20.4331C45.5418 20.6795 45.8405 20.8321 46.183 20.8585C46.0381 21.2515 46.104 21.7751 46.5886 22.1418C46.6325 22.1814 46.6823 22.2576 46.7423 22.3808C46.7687 22.4351 46.798 22.4864 46.8287 22.5363C46.8228 22.5363 46.8185 22.5363 46.8126 22.5363C46.7657 22.5363 46.7189 22.5392 46.6735 22.5436C46.309 22.5818 46.0674 22.7314 45.9151 22.881H45.9078C45.8683 22.881 45.8302 22.881 45.7936 22.8839C45.8229 22.8458 45.8507 22.8091 45.8771 22.7739L45.8785 22.7724ZM42.6883 22.265C42.7117 22.2239 42.7322 22.1814 42.7513 22.1374C42.8801 22.064 43.0543 21.9555 43.2168 21.7883C43.211 21.8147 43.2051 21.8411 43.1993 21.866C43.0016 21.9804 42.8318 22.1139 42.6883 22.2635V22.265Z" fill="#727272"/>
    <path d="M21.9568 50.9729C20.6084 49.2158 19.5177 47.2946 18.7095 45.2545L19.9876 45.407C20.0506 45.4143 20.1135 45.4187 20.1765 45.4202C20.4473 45.6241 20.7563 45.6739 20.8895 45.6959L20.9349 45.7033C21.0374 45.7238 21.1399 45.7341 21.2409 45.7341C21.5981 45.7341 21.8631 45.6079 22.0344 45.5038C22.5995 45.9761 23.2686 46.2635 24.027 46.3603C24.3506 46.4014 24.4574 46.4747 24.516 46.5334C24.6932 46.7138 24.8879 46.837 25.0197 46.9074C25.0314 46.9132 25.0416 46.9191 25.0519 46.925C24.9699 47.0614 24.882 47.167 24.7942 47.23C24.4326 47.4955 23.8601 48.1071 24.1046 49.2188C24.1851 49.5825 24.191 49.9081 24.1207 50.2029C24.1075 50.2029 24.0958 50.2029 24.0826 50.2029C23.7005 50.2029 23.4092 50.329 23.2525 50.3965C23.0724 50.4742 22.8821 50.5476 22.6815 50.6238C22.5659 50.6678 22.4487 50.7118 22.336 50.7573C22.1837 50.8174 22.0578 50.8922 21.9553 50.9729H21.9568ZM18.708 45.2545C18.3479 44.3466 18.0448 43.4168 17.7988 42.4664C17.8779 42.5251 17.9584 42.5837 18.0404 42.6409C18.3186 42.8375 18.6641 42.9607 19.0667 43.0105C19.238 43.0311 19.3888 43.1059 19.6084 43.2818C19.6099 43.2936 19.6128 43.3053 19.6157 43.3171C19.4181 43.5136 19.2658 43.757 19.1575 44.0445L18.7066 45.253L18.708 45.2545Z" fill="#727272"/>
    <path d="M19.749 23.3253C19.708 23.3913 19.6655 23.4573 19.626 23.5233C19.7153 23.4412 19.749 23.3781 19.749 23.3253Z" fill="#727272"/>
    <path d="M19.2334 26.4097C19.4091 26.0284 19.595 25.6529 19.7912 25.2833C19.8322 25.2789 19.8747 25.2716 19.9186 25.2642C19.9362 25.2613 19.9537 25.2584 19.9713 25.254C19.9903 25.3361 20.0064 25.4065 20.0123 25.4622C20.0255 25.5986 20.0577 25.7204 20.1031 25.8274C19.9859 26.0372 19.961 26.2425 19.9669 26.4023C19.7575 26.4082 19.5452 26.4082 19.33 26.4097H19.2334Z" fill="#727272"/>
    <path d="M28.2802 19.4666C28.4881 18.7832 28.4105 18.1071 28.0708 17.5571C28.0693 17.5321 28.0664 17.5116 28.0649 17.4911C29.0356 16.8326 30.0561 16.2503 31.1102 15.7516C31.2918 15.9027 31.4967 16.0215 31.7163 16.1036C31.3196 16.2899 30.9858 16.5935 30.7574 16.9895C30.529 17.384 30.4324 17.8372 30.4763 18.2772C30.0795 18.3373 29.6945 18.4869 29.3431 18.723C29.0078 18.836 28.6169 19.0516 28.2802 19.4652V19.4666Z" fill="black"/>
    <path d="M45.2856 54.6703C45.1656 54.4385 45.0397 54.2171 44.9167 54.0015C44.7952 53.7903 44.6883 53.6025 44.599 53.4265C44.5243 53.2784 44.4716 53.1186 44.4438 52.9514C44.315 52.1784 44.0792 51.4466 43.741 50.7705C43.8025 50.5813 43.8669 50.4023 43.9343 50.2337C44.5331 48.7495 43.867 47.4265 43.6473 46.991C43.561 46.8208 43.4731 46.6815 43.4087 46.5803C43.4028 46.5715 43.397 46.5612 43.3911 46.5524C43.2462 46.133 42.9914 45.7341 42.6635 45.4158C42.6679 45.3762 42.6723 45.3307 42.6781 45.2779C42.7235 44.8951 42.7543 44.3833 42.5932 43.8128C42.2901 42.7304 41.3429 42.0015 40.2331 41.9897C39.7368 41.6348 39.1351 41.4368 38.5231 41.4368C38.1702 41.4368 37.8203 41.4999 37.4806 41.6231C37.1659 41.7389 36.6798 41.7551 36.1644 41.7741C35.8731 41.7844 35.5744 41.7947 35.2626 41.8225C35.2172 41.7991 35.1689 41.7741 35.125 41.7492C34.8892 41.2286 34.5803 40.8384 34.3226 40.5128C34.2363 40.4028 34.1543 40.3002 34.0972 40.218C34.1806 39.8088 34.1762 39.4495 34.1718 39.2046C34.1718 39.1357 34.1689 39.0711 34.1718 39.0169C34.1777 38.9215 34.1806 38.8277 34.1821 38.7338C34.3505 38.5563 34.4866 38.3877 34.5964 38.2498C34.6726 38.156 34.7736 38.0298 34.8234 37.9829C34.8892 37.9462 35.002 37.8817 35.1279 37.7922C35.4295 37.5796 36.264 36.9914 36.5144 35.9179C36.5246 35.9105 36.5349 35.9017 36.5436 35.8944C36.6915 35.8827 36.8423 35.8577 36.999 35.8225C37.2845 35.7565 37.5685 35.6847 37.8525 35.6143L37.8774 35.6084C38.1585 35.538 38.4396 35.4676 38.7222 35.4031C38.8686 35.3693 39.0311 35.3473 39.2053 35.3312C39.5479 35.9853 40.1994 36.4547 41.0955 36.6688C41.1774 36.6879 41.3575 36.7803 41.5171 36.8609C41.5976 36.902 41.6782 36.9416 41.7587 36.9812C41.7894 36.9958 41.8202 37.0134 41.8524 37.0296C41.9915 37.1029 42.1467 37.185 42.3428 37.2642C42.7074 37.4124 43.11 37.5488 43.5888 37.5488C44.1773 37.5488 44.7147 37.342 45.1495 36.9533C45.3427 36.9988 45.5345 37.0442 45.7234 37.0882L46.1055 37.1777C46.1641 37.1909 46.2563 37.2129 46.3734 37.232C46.4393 37.3302 46.4979 37.4065 46.5374 37.4578L46.6018 37.54C46.9488 37.9858 47.2753 38.4082 47.4744 38.8013C47.4832 38.8174 47.5008 38.8526 47.5169 38.8878C47.5696 39.8338 48.104 40.4424 48.369 40.7431L48.3895 40.7666C48.5827 40.9866 48.7731 41.1802 48.959 41.3694C49.1552 41.5688 49.3367 41.7536 49.4685 41.9164C49.6852 42.1863 49.9092 42.4341 50.1068 42.6527L50.2049 42.7612C50.3601 42.9342 50.5344 43.0853 50.7232 43.2114C49.735 43.9624 48.981 44.8878 48.4817 45.9658C47.8976 47.2286 48.3236 48.3095 48.5535 48.8902L48.6003 49.0105C48.6237 49.0721 48.6413 49.1308 48.6545 49.1909C48.3251 49.4021 47.9107 49.6969 47.5242 50.0768C46.921 50.6678 46.6589 51.429 46.7717 52.1902C46.3778 52.614 46.1202 53.1494 46.0279 53.7492C46.0045 53.8973 45.8683 54.1731 45.3647 54.6497C45.3398 54.6556 45.3105 54.66 45.2812 54.6659L45.2856 54.6703ZM62.9263 36.7157C62.5822 35.5453 61.6482 35.0892 60.9059 35.0452C60.758 34.9866 60.6028 34.9426 60.4418 34.9147C60.3583 34.9 60.1812 34.8091 59.9952 34.7138C59.9176 34.6742 59.8415 34.6346 59.7624 34.5964C59.3598 34.3984 58.9235 34.3016 58.4316 34.3016C58.1915 34.3016 57.9836 34.3251 57.8152 34.3427C57.7566 34.3486 57.6673 34.3588 57.6337 34.3603C57.5868 34.3603 57.54 34.3588 57.4916 34.3588C57.3321 34.3588 57.1783 34.3662 57.0217 34.3735H57.0056C56.6791 34.1462 56.2984 34.0083 55.8929 33.9746C56.2091 33.6314 56.4214 33.1679 56.439 32.5637C56.4419 32.4434 56.4478 32.2322 56.4185 31.9726C57.2999 31.7101 58.1681 30.921 58.089 29.4397L58.0656 28.9939L57.9484 28.7724C57.6659 27.9511 56.9412 27.3835 56.0715 27.3131L55.9939 27.3073H55.9075C55.5195 27.3073 55.1506 27.407 54.8212 27.5962C54.442 27.3146 53.9735 27.1547 53.4698 27.1547C53.319 27.1547 53.1668 27.1694 53.016 27.2002C52.4655 27.3087 51.6632 27.5302 50.9985 28.1931C50.9121 28.0772 50.8155 27.9702 50.7057 27.8719C50.2913 27.4979 49.7511 27.2897 49.183 27.2897C48.8682 27.2897 48.6193 27.3527 48.4993 27.3835L48.4803 27.3879C48.3207 27.4275 48.1743 27.4774 48.0381 27.5287C47.8829 27.4994 47.7233 27.4847 47.5623 27.4847C47.3163 27.4847 47.0747 27.5185 46.842 27.5874C46.1143 27.8001 45.5214 28.2738 45.0792 28.9939C45.0558 29.032 45.0294 29.0716 45.0045 29.1112C44.9167 29.2462 44.8054 29.4177 44.6985 29.626C44.6005 29.5468 44.4965 29.472 44.3882 29.4045C44.2959 29.3459 44.0119 29.167 43.9006 29.0335C43.763 28.8692 43.6049 28.7255 43.4263 28.6023C43.4746 28.5818 43.52 28.5612 43.5639 28.5407C43.5844 28.5407 43.6049 28.5407 43.6254 28.5407C44.3603 28.5407 45.0382 28.2562 45.5331 27.7414C45.6385 27.6329 45.7322 27.5155 45.8171 27.3909C46.0074 27.3029 46.186 27.187 46.3471 27.0462C46.6062 26.8203 46.8068 26.5475 46.943 26.244C47.0835 26.1985 47.2168 26.1428 47.3427 26.0768C47.7643 26.0225 48.3792 25.8788 48.8595 25.2598C49.0922 24.9606 49.2343 24.6175 49.2796 24.2479C49.489 24.1496 49.6837 24.0176 49.8536 23.8563C50.1771 23.6949 50.4524 23.4603 50.6647 23.1655C50.7701 23.1244 50.8711 23.076 50.9692 23.0203C51.464 22.9294 51.915 22.6771 52.2605 22.2972C52.344 22.3075 52.4289 22.3119 52.5153 22.3119C52.931 22.3119 53.2488 22.1975 53.4508 22.1124C53.4771 22.1007 53.505 22.089 53.5313 22.0772C53.5665 22.0787 53.6001 22.0802 53.6353 22.0802C53.9442 22.0802 54.2399 22.0186 54.5137 21.8983C54.726 22.177 55.013 22.4072 55.3629 22.5759C55.7099 22.7651 56.1754 22.9719 56.7567 22.9719C57.3321 22.9719 57.8591 22.771 58.2925 22.394C58.3467 22.3984 58.4008 22.3999 58.455 22.3999C58.5795 22.3999 58.7024 22.3896 58.8225 22.3691C61.8517 26.2616 63.5573 31.0589 63.6554 35.9883C63.4607 36.242 63.2191 36.4957 62.9336 36.7451C62.9307 36.7348 62.9278 36.7245 62.9234 36.7143L62.9263 36.7157ZM50.8608 35.1274C50.8023 35.0467 50.7423 34.9675 50.6778 34.8898C50.836 34.3662 50.9018 33.8719 50.9414 33.4686C50.9458 33.4158 50.9502 33.363 50.9516 33.3117C51.0395 33.2779 51.1244 33.2413 51.2078 33.2002C51.2898 33.3953 51.3982 33.5815 51.5285 33.7531C51.5343 33.7605 51.5402 33.7678 51.5446 33.7751C51.1581 34.1432 50.9194 34.6155 50.8608 35.1274Z" fill="black"/>
    <path d="M45.2856 54.6703C45.1656 54.4385 45.0397 54.2171 44.9167 54.0015C44.7952 53.7903 44.6883 53.6025 44.599 53.4265C44.5243 53.2784 44.4716 53.1186 44.4438 52.9514C44.315 52.1784 44.0792 51.4466 43.741 50.7705C43.8025 50.5813 43.8669 50.4023 43.9343 50.2337C44.5331 48.7495 43.867 47.4265 43.6473 46.991C43.561 46.8208 43.4731 46.6815 43.4087 46.5803C43.4028 46.5715 43.397 46.5612 43.3911 46.5524C43.2462 46.133 42.9914 45.7341 42.6635 45.4158C42.6679 45.3762 42.6723 45.3307 42.6781 45.2779C42.7235 44.8951 42.7543 44.3833 42.5932 43.8128C42.2901 42.7304 41.3429 42.0015 40.2331 41.9897C39.7368 41.6348 39.1351 41.4368 38.5231 41.4368C38.1702 41.4368 37.8203 41.4999 37.4806 41.6231C37.1659 41.7389 36.6798 41.7551 36.1644 41.7741C35.8731 41.7844 35.5744 41.7947 35.2626 41.8225C35.2172 41.7991 35.1689 41.7741 35.125 41.7492C34.8892 41.2286 34.5803 40.8384 34.3226 40.5128C34.2363 40.4028 34.1543 40.3002 34.0972 40.218C34.1806 39.8088 34.1762 39.4495 34.1718 39.2046C34.1718 39.1357 34.1689 39.0711 34.1718 39.0169C34.1777 38.9215 34.1806 38.8277 34.1821 38.7338C34.3505 38.5563 34.4866 38.3877 34.5964 38.2498C34.6726 38.156 34.7736 38.0298 34.8234 37.9829C34.8892 37.9462 35.002 37.8817 35.1279 37.7922C35.4295 37.5796 36.264 36.9914 36.5144 35.9179C36.5246 35.9105 36.5349 35.9017 36.5436 35.8944C36.6915 35.8827 36.8423 35.8577 36.999 35.8225C37.2845 35.7565 37.5685 35.6847 37.8525 35.6143L37.8774 35.6084C38.1585 35.538 38.4396 35.4676 38.7222 35.4031C38.8686 35.3693 39.0311 35.3473 39.2053 35.3312C39.5479 35.9853 40.1994 36.4547 41.0955 36.6688C41.1774 36.6879 41.3575 36.7803 41.5171 36.8609C41.5976 36.902 41.6782 36.9416 41.7587 36.9812C41.7894 36.9958 41.8202 37.0134 41.8524 37.0296C41.9915 37.1029 42.1467 37.185 42.3428 37.2642C42.7074 37.4124 43.11 37.5488 43.5888 37.5488C44.1773 37.5488 44.7147 37.342 45.1495 36.9533C45.3427 36.9988 45.5345 37.0442 45.7234 37.0882L46.1055 37.1777C46.1641 37.1909 46.2563 37.2129 46.3734 37.232C46.4393 37.3302 46.4979 37.4065 46.5374 37.4578L46.6018 37.54C46.9488 37.9858 47.2753 38.4082 47.4744 38.8013C47.4832 38.8174 47.5008 38.8526 47.5169 38.8878C47.5696 39.8338 48.104 40.4424 48.369 40.7431L48.3895 40.7666C48.5827 40.9866 48.7731 41.1802 48.959 41.3694C49.1552 41.5688 49.3367 41.7536 49.4685 41.9164C49.6852 42.1863 49.9092 42.4341 50.1068 42.6527L50.2049 42.7612C50.3601 42.9342 50.5344 43.0853 50.7232 43.2114C49.735 43.9624 48.981 44.8878 48.4817 45.9658C47.8976 47.2286 48.3236 48.3095 48.5535 48.8902L48.6003 49.0105C48.6237 49.0721 48.6413 49.1308 48.6545 49.1909C48.3251 49.4021 47.9107 49.6969 47.5242 50.0768C46.921 50.6678 46.6589 51.429 46.7717 52.1902C46.3778 52.614 46.1202 53.1494 46.0279 53.7492C46.0045 53.8973 45.8683 54.1731 45.3647 54.6497C45.3398 54.6556 45.3105 54.66 45.2812 54.6659L45.2856 54.6703ZM62.9263 36.7157C62.5822 35.5453 61.6482 35.0892 60.9059 35.0452C60.758 34.9866 60.6028 34.9426 60.4418 34.9147C60.3583 34.9 60.1812 34.8091 59.9952 34.7138C59.9176 34.6742 59.8415 34.6346 59.7624 34.5964C59.3598 34.3984 58.9235 34.3016 58.4316 34.3016C58.1915 34.3016 57.9836 34.3251 57.8152 34.3427C57.7566 34.3486 57.6673 34.3588 57.6337 34.3603C57.5868 34.3603 57.54 34.3588 57.4916 34.3588C57.3321 34.3588 57.1783 34.3662 57.0217 34.3735H57.0056C56.6791 34.1462 56.2984 34.0083 55.8929 33.9746C56.2091 33.6314 56.4214 33.1679 56.439 32.5637C56.4419 32.4434 56.4478 32.2322 56.4185 31.9726C57.2999 31.7101 58.1681 30.921 58.089 29.4397L58.0656 28.9939L57.9484 28.7724C57.6659 27.9511 56.9412 27.3835 56.0715 27.3131L55.9939 27.3073H55.9075C55.5195 27.3073 55.1506 27.407 54.8212 27.5962C54.442 27.3146 53.9735 27.1547 53.4698 27.1547C53.319 27.1547 53.1668 27.1694 53.016 27.2002C52.4655 27.3087 51.6632 27.5302 50.9985 28.1931C50.9121 28.0772 50.8155 27.9702 50.7057 27.8719C50.2913 27.4979 49.7511 27.2897 49.183 27.2897C48.8682 27.2897 48.6193 27.3527 48.4993 27.3835L48.4803 27.3879C48.3207 27.4275 48.1743 27.4774 48.0381 27.5287C47.8829 27.4994 47.7233 27.4847 47.5623 27.4847C47.3163 27.4847 47.0747 27.5185 46.842 27.5874C46.1143 27.8001 45.5214 28.2738 45.0792 28.9939C45.0558 29.032 45.0294 29.0716 45.0045 29.1112C44.9167 29.2462 44.8054 29.4177 44.6985 29.626C44.6005 29.5468 44.4965 29.472 44.3882 29.4045C44.2959 29.3459 44.0119 29.167 43.9006 29.0335C43.763 28.8692 43.6049 28.7255 43.4263 28.6023C43.4746 28.5818 43.52 28.5612 43.5639 28.5407C43.5844 28.5407 43.6049 28.5407 43.6254 28.5407C44.3603 28.5407 45.0382 28.2562 45.5331 27.7414C45.6385 27.6329 45.7322 27.5155 45.8171 27.3909C46.0074 27.3029 46.186 27.187 46.3471 27.0462C46.6062 26.8203 46.8068 26.5475 46.943 26.244C47.0835 26.1985 47.2168 26.1428 47.3427 26.0768C47.7643 26.0225 48.3792 25.8788 48.8595 25.2598C49.0922 24.9606 49.2343 24.6175 49.2796 24.2479C49.489 24.1496 49.6837 24.0176 49.8536 23.8563C50.1771 23.6949 50.4524 23.4603 50.6647 23.1655C50.7701 23.1244 50.8711 23.076 50.9692 23.0203C51.464 22.9294 51.915 22.6771 52.2605 22.2972C52.344 22.3075 52.4289 22.3119 52.5153 22.3119C52.931 22.3119 53.2488 22.1975 53.4508 22.1124C53.4771 22.1007 53.505 22.089 53.5313 22.0772C53.5665 22.0787 53.6001 22.0802 53.6353 22.0802C53.9442 22.0802 54.2399 22.0186 54.5137 21.8983C54.726 22.177 55.013 22.4072 55.3629 22.5759C55.7099 22.7651 56.1754 22.9719 56.7567 22.9719C57.3321 22.9719 57.8591 22.771 58.2925 22.394C58.3467 22.3984 58.4008 22.3999 58.455 22.3999C58.5795 22.3999 58.7024 22.3896 58.8225 22.3691C61.8517 26.2616 63.5573 31.0589 63.6554 35.9883C63.4607 36.242 63.2191 36.4957 62.9336 36.7451C62.9307 36.7348 62.9278 36.7245 62.9234 36.7143L62.9263 36.7157ZM50.8608 35.1274C50.8023 35.0467 50.7423 34.9675 50.6778 34.8898C50.836 34.3662 50.9018 33.8719 50.9414 33.4686C50.9458 33.4158 50.9502 33.363 50.9516 33.3117C51.0395 33.2779 51.1244 33.2413 51.2078 33.2002C51.2898 33.3953 51.3982 33.5815 51.5285 33.7531C51.5343 33.7605 51.5402 33.7678 51.5446 33.7751C51.1581 34.1432 50.9194 34.6155 50.8608 35.1274Z" fill="black"/>
    <path d="M50.8607 35.1274C50.8022 35.0467 50.7422 34.9675 50.6777 34.8898C50.8359 34.3662 50.9017 33.8719 50.9413 33.4686C50.9457 33.4158 50.9501 33.363 50.9515 33.3117C51.0394 33.2779 51.1243 33.2413 51.2077 33.2002C51.2897 33.3953 51.3981 33.5815 51.5284 33.7531C51.5342 33.7605 51.5401 33.7678 51.5445 33.7751C51.1579 34.1432 50.9193 34.6155 50.8607 35.1274Z" fill="black"/>
    <g opacity="0.1">
      <path d="M34.248 40.419C34.3197 40.0347 34.3153 39.6959 34.3124 39.4627C34.3124 39.3938 34.3095 39.3292 34.3124 39.275C34.3182 39.1797 34.3212 39.0858 34.3226 38.9919C34.491 38.8145 34.6272 38.6458 34.737 38.5079C34.8131 38.4141 34.9141 38.2879 34.9639 38.241C35.0298 38.2043 35.1425 38.1398 35.2684 38.0503C35.57 37.8377 36.4046 37.2496 36.6549 36.176C36.6652 36.1687 36.6754 36.1599 36.6842 36.1525C36.8321 36.1408 36.9829 36.1159 37.1395 36.0807C37.425 36.0147 37.709 35.9428 37.9931 35.8724L38.018 35.8665C38.2991 35.7961 38.5802 35.7257 38.8627 35.6612C39.0091 35.6275 39.1717 35.6055 39.3459 35.5893C39.6885 36.2434 40.34 36.7128 41.236 36.9269C41.318 36.946 41.4981 37.0384 41.6577 37.119C41.7382 37.1601 41.8187 37.1997 41.8992 37.2393C41.93 37.254 41.9607 37.2716 41.9929 37.2877C42.132 37.361 42.2872 37.4432 42.4834 37.5224C42.848 37.6705 43.2506 37.8069 43.7293 37.8069C44.3179 37.8069 44.8552 37.6001 45.29 37.2114C45.4833 37.2569 45.6751 37.3024 45.864 37.3464L46.2461 37.4358C46.3046 37.449 46.3969 37.471 46.514 37.4901C46.5799 37.5884 46.6384 37.6646 46.678 37.716L46.7424 37.7981C47.0308 38.1691 47.3031 38.5211 47.5023 38.857C47.492 38.835 47.4818 38.8159 47.4759 38.8057C47.2782 38.4111 46.9503 37.9902 46.6033 37.5444L46.5389 37.4622C46.4994 37.4109 46.4408 37.3346 46.3749 37.2364C46.2578 37.2188 46.1656 37.1968 46.107 37.1821L45.7249 37.0926C45.536 37.0486 45.3442 37.0032 45.1509 36.9577C44.7147 37.3449 44.1788 37.5532 43.5902 37.5532C43.1115 37.5532 42.7089 37.4168 42.3443 37.2686C42.1496 37.1894 41.9929 37.1073 41.8538 37.034C41.8231 37.0178 41.7909 37.0002 41.7601 36.9856C41.6796 36.946 41.5991 36.9049 41.5186 36.8653C41.359 36.7846 41.1789 36.6937 41.0969 36.6732C40.2009 36.459 39.5494 35.9883 39.2068 35.3356C39.0326 35.3532 38.8701 35.3752 38.7236 35.4075C38.4411 35.472 38.16 35.5424 37.8789 35.6128L37.854 35.6187C37.57 35.6905 37.2859 35.7609 37.0004 35.8269C36.8423 35.8636 36.6915 35.8871 36.5451 35.8988C36.5349 35.9061 36.5246 35.9149 36.5158 35.9223C36.2655 36.9958 35.4309 37.584 35.1293 37.7966C35.0034 37.8861 34.8907 37.9491 34.8248 37.9873C34.775 38.0342 34.6726 38.1603 34.5979 38.2542C34.4866 38.3921 34.3505 38.5607 34.1835 38.7382C34.1806 38.8321 34.1777 38.9259 34.1733 39.0213C34.1704 39.0755 34.1733 39.1401 34.1733 39.209C34.1762 39.4539 34.1821 39.8132 34.0986 40.2224C34.1382 40.2796 34.1909 40.3471 34.248 40.4204V40.419Z" fill="black"/>
      <path d="M48.5109 41.0012L48.5314 41.0247C48.7247 41.2447 48.915 41.4383 49.1009 41.6275C49.2971 41.8269 49.4787 42.0117 49.6104 42.1745C49.8271 42.4444 50.0511 42.6923 50.2488 42.9108L50.3469 43.0193C50.4362 43.1176 50.5313 43.2085 50.6309 43.2921C50.6631 43.2672 50.6939 43.2393 50.7275 43.2144C50.5387 43.0882 50.3644 42.9372 50.2093 42.7641L50.1112 42.6556C49.9135 42.4371 49.6895 42.1892 49.4728 41.9193C49.3411 41.7565 49.1595 41.5717 48.9633 41.3723C48.7774 41.1846 48.5871 40.9895 48.3938 40.7695L48.3733 40.746C48.2532 40.6096 48.0805 40.4116 47.9194 40.1491C48.1083 40.5422 48.3557 40.8238 48.5109 41.0012Z" fill="black"/>
      <path d="M35.0576 41.6055C35.081 41.6539 35.1059 41.7008 35.1279 41.7507C35.1323 41.7536 35.1381 41.7565 35.144 41.7595C35.1162 41.7067 35.0869 41.6553 35.0576 41.6055Z" fill="black"/>
      <path d="M43.2725 46.2635C43.3178 46.3574 43.3574 46.4542 43.3911 46.5524C43.3969 46.5612 43.4028 46.5715 43.4086 46.5803C43.435 46.6213 43.4643 46.6683 43.4965 46.7211C43.4364 46.5641 43.3603 46.4102 43.2725 46.265V46.2635Z" fill="black"/>
      <path d="M45.2153 54.5382C45.2388 54.5822 45.2622 54.6248 45.2856 54.6688C45.2622 54.6248 45.2388 54.5808 45.2139 54.5382H45.2153Z" fill="black"/>
      <path d="M42.6649 45.4158C42.7162 45.4657 42.7659 45.5199 42.8143 45.5742C42.8157 45.561 42.8172 45.5493 42.8187 45.5346C42.864 45.1518 42.8948 44.6399 42.7337 44.0694C42.6679 43.8362 42.5712 43.6206 42.4512 43.4241C42.5083 43.5473 42.5566 43.6778 42.5946 43.8128C42.7542 44.3818 42.7235 44.8951 42.6796 45.2779C42.6737 45.3307 42.6679 45.3762 42.6649 45.4158Z" fill="black"/>
      <path d="M44.7382 53.6817C44.6635 53.5336 44.6108 53.3737 44.583 53.2065C44.4542 52.4336 44.2185 51.7018 43.8803 51.0257C43.9417 50.8365 44.0062 50.6575 44.0735 50.4889C44.6723 49.0046 44.0062 47.6817 43.7866 47.2461C43.7456 47.1655 43.7046 47.0922 43.6665 47.0262C43.9008 47.4925 44.5201 48.7861 43.9359 50.2337C43.8671 50.4038 43.8041 50.5813 43.7426 50.7705C44.0808 51.4466 44.3166 52.177 44.4454 52.9514C44.4732 53.1186 44.5259 53.2799 44.6006 53.4265C44.6504 53.5248 44.7075 53.6289 44.7675 53.7375C44.7572 53.7199 44.7485 53.7008 44.7382 53.6832V53.6817Z" fill="black"/>
    </g>
    <g opacity="0.1">
      <path d="M43.7044 28.7959C43.7249 28.7959 43.7454 28.7959 43.7659 28.7959C44.5009 28.7959 45.1788 28.5114 45.6736 27.9966C45.779 27.888 45.8727 27.7707 45.9577 27.6461C46.148 27.5581 46.3266 27.4422 46.4877 27.3014C46.7468 27.0755 46.9474 26.8027 47.0835 26.4991C47.2241 26.4537 47.3573 26.3979 47.4832 26.3319C47.9049 26.2777 48.5198 26.134 49 25.515C49.2328 25.2158 49.3748 24.8727 49.4202 24.5031C49.6296 24.4048 49.8243 24.2728 49.9941 24.1115C50.3177 23.9501 50.5929 23.7155 50.8052 23.4207C50.9106 23.3796 51.0116 23.3312 51.1097 23.2755C51.6046 23.1846 52.0555 22.9323 52.4011 22.5524C52.4845 22.5627 52.5694 22.5671 52.6558 22.5671C53.0716 22.5671 53.3893 22.4527 53.5914 22.3676C53.6177 22.3559 53.6455 22.3442 53.6719 22.3324C53.707 22.3339 53.7407 22.3354 53.7758 22.3354C54.0847 22.3354 54.3805 22.2738 54.6543 22.1535C54.8666 22.4322 55.1535 22.6624 55.5034 22.8311C55.8504 23.0203 56.316 23.2271 56.8972 23.2271C57.4726 23.2271 57.9997 23.0262 58.4331 22.6492C58.4872 22.6536 58.5414 22.6551 58.5956 22.6551C58.72 22.6551 58.843 22.6448 58.9631 22.6243C59.6995 23.5703 60.3568 24.5705 60.9337 25.6133C60.3261 24.4796 59.6219 23.3928 58.8254 22.3691C58.7054 22.3896 58.5824 22.3999 58.4579 22.3999C58.4038 22.3999 58.3496 22.3984 58.2954 22.394C57.8621 22.7695 57.3335 22.9719 56.7596 22.9719C56.1769 22.9719 55.7113 22.7651 55.3658 22.5759C55.0159 22.4058 54.7289 22.1755 54.5166 21.8983C54.2429 22.0171 53.9471 22.0802 53.6382 22.0802C53.6031 22.0802 53.5694 22.0802 53.5343 22.0772C53.5079 22.089 53.4801 22.1007 53.4537 22.1124C53.2517 22.1975 52.9354 22.3119 52.5182 22.3119C52.4333 22.3119 52.3484 22.3075 52.2634 22.2972C51.9179 22.6771 51.467 22.9308 50.9721 23.0203C50.874 23.076 50.773 23.1244 50.6676 23.1655C50.4568 23.4603 50.1801 23.6949 49.8565 23.8563C49.6867 24.0176 49.4919 24.1496 49.2826 24.2479C49.2357 24.6175 49.0952 24.9606 48.8624 25.2598C48.3822 25.8788 47.7658 26.0225 47.3456 26.0768C47.2197 26.1428 47.0865 26.1985 46.9459 26.244C46.8112 26.5475 46.6092 26.8203 46.35 27.0462C46.189 27.187 46.0104 27.3014 45.82 27.3909C45.7366 27.5155 45.6414 27.6329 45.5375 27.7414C45.0411 28.2562 44.3633 28.5407 43.6298 28.5407C43.6093 28.5407 43.5888 28.5407 43.5683 28.5407C43.5244 28.5612 43.479 28.5818 43.4307 28.6023C43.5214 28.6654 43.6078 28.7328 43.6869 28.8047C43.6927 28.8018 43.7001 28.7988 43.7074 28.7959H43.7044Z" fill="black"/>
      <path d="M56.5797 32.8189C56.5827 32.6986 56.5885 32.4874 56.5592 32.2278C57.4406 31.9653 58.3088 31.1763 58.2297 29.695L58.2063 29.2491L58.0892 29.0276C58.0321 28.8619 57.956 28.7064 57.8652 28.5627C57.8959 28.6302 57.9267 28.7006 57.9516 28.7724L58.0687 28.9939L58.0921 29.4398C58.1712 30.9211 57.303 31.7101 56.4216 31.9726C56.4509 32.2322 56.445 32.4434 56.4421 32.5637C56.426 33.1665 56.2122 33.6299 55.896 33.9746C55.9999 33.9834 56.101 33.9981 56.2005 34.0201C56.4231 33.7047 56.5665 33.3087 56.5797 32.8189Z" fill="black"/>
      <path d="M62.7827 36.3388C62.8369 36.4561 62.8852 36.5808 62.9262 36.7157C62.9291 36.726 62.932 36.7363 62.9364 36.7465C62.9496 36.7348 62.9613 36.7245 62.973 36.7128C62.9174 36.5764 62.8545 36.4532 62.7827 36.3388Z" fill="black"/>
    </g>
    <path d="M50.9999 35.3825C50.9413 35.3019 50.8813 35.2227 50.8169 35.1449C50.975 34.6214 51.0409 34.1271 51.0804 33.7238C51.0848 33.671 51.0892 33.6182 51.0907 33.5668C51.1785 33.5331 51.2634 33.4964 51.3469 33.4554C51.4289 33.6504 51.5372 33.8367 51.6675 34.0083C51.6734 34.0156 51.6792 34.023 51.6836 34.0303C51.2971 34.3984 51.0585 34.8707 50.9999 35.3825Z" fill="black"/>
    <path d="M22.2412 49.6969C21.5487 48.7245 20.9338 47.7008 20.4023 46.636C20.5268 46.6683 20.6293 46.6844 20.6937 46.6947L20.723 46.6991C20.8855 46.7299 21.048 46.746 21.209 46.746C21.4345 46.746 21.6556 46.7167 21.8708 46.6565C22.3305 46.9469 22.8342 47.1552 23.3773 47.2784C23.0289 47.8768 22.9191 48.5954 23.0728 49.3654C22.9659 49.4036 22.881 49.4402 22.821 49.4666C22.6643 49.5341 22.4857 49.603 22.2983 49.6749C22.2983 49.6749 22.2544 49.691 22.2412 49.6969Z" fill="black"/>
    <path d="M19.2046 26.4097C19.3803 26.0284 19.5662 25.6529 19.7624 25.2833C19.8034 25.2789 19.8459 25.2716 19.8898 25.2642C19.9073 25.2613 19.9249 25.2584 19.9425 25.254C19.9615 25.3361 19.9776 25.4065 19.9835 25.4622C19.9967 25.5986 20.0289 25.7204 20.0743 25.8274C19.9571 26.0372 19.9322 26.2425 19.9381 26.4023C19.7287 26.4082 19.5164 26.4082 19.3012 26.4097H19.2046Z" fill="black"/>
  </g>
  <defs>
    <filter id="filter0_d_2451_682" x="11.0347" y="6.43826" width="64.729" height="60.2694" filterUnits="userSpaceOnUse" color-interpolation-filters="sRGB">
      <feFlood flood-opacity="0" result="BackgroundImageFix"/>
      <feColorMatrix in="SourceAlpha" type="matrix" values="0 0 0 0 0 0 0 0 0 0 0 0 0 0 0 0 0 0 127 0" result="hardAlpha"/>
      <feOffset dx="5" dy="5"/>
      <feGaussianBlur stdDeviation="5"/>
      <feColorMatrix type="matrix" values="0 0 0 0 0 0 0 0 0 0 0 0 0 0 0 0 0 0 0.1 0"/>
      <feBlend mode="normal" in2="BackgroundImageFix" result="effect1_dropShadow_2451_682"/>
      <feBlend mode="normal" in="SourceGraphic" in2="effect1_dropShadow_2451_682" result="shape"/>
    </filter>
    <linearGradient id="paint0_linear_2451_682" x1="16.0334" y1="36.3191" x2="65.7066" y2="36.3191" gradientUnits="userSpaceOnUse">
      <stop stop-color="#79797B"/>
      <stop offset="0.92" stop-color="#010200"/>
    </linearGradient>
    <clipPath id="clip0_2451_682">
      <rect width="82" height="72" fill="white"/>
    </clipPath>
  </defs>
</svg>
